<svg width="18" height="18" viewBox="0 0 18 18" fill="none" xmlns="http://www.w3.org/2000/svg">
<path fill-rule="evenodd" clip-rule="evenodd" d="M8.71649 6.47251C8.20449 6.47251 7.78749 6.05551 7.78749 5.54151C7.78649 5.29551 7.88349 5.06051 8.05849 4.88451C8.23449 4.70851 8.46749 4.61151 8.71649 4.61151C9.22849 4.61151 9.64649 5.02851 9.64649 5.54151C9.64649 6.05551 9.22949 6.47251 8.71649 6.47251M9.64549 13.6115V9.00051C9.64549 8.61351 9.33249 8.30051 8.94549 8.30051H8.02949C7.64249 8.30051 7.32949 8.61351 7.32949 9.00051C7.32949 9.38751 7.64249 9.70051 8.02949 9.70051H8.24549V13.6115C8.24549 13.9975 8.55849 14.3115 8.94549 14.3115C9.33249 14.3115 9.64549 13.9975 9.64549 13.6115M8.94549 1.40051C4.78549 1.40051 1.40049 4.80951 1.40049 9.00051C1.40049 13.1905 4.78549 16.5995 8.94549 16.5995C13.1065 16.5995 16.4915 13.1905 16.4915 9.00051C16.4915 4.80951 13.1065 1.40051 8.94549 1.40051M8.94549 18.0005C4.01349 18.0005 0.000488281 13.9625 0.000488281 9.00051C0.000488281 4.03751 4.01349 -0.000488281 8.94549 -0.000488281C13.8785 -0.000488281 17.8915 4.03751 17.8915 9.00051C17.8915 13.9625 13.8785 18.0005 8.94549 18.0005" fill="#262D3D"/>
</svg>
