<?xml version="1.0" encoding="UTF-8"?>
<svg width="24px" height="25px" viewBox="0 0 24 25" version="1.1" xmlns="http://www.w3.org/2000/svg" xmlns:xlink="http://www.w3.org/1999/xlink">
    <title>70B7D5F6-EF7F-4766-9909-06E624DA6294@2x</title>
    <defs>
        <filter x="-54.5%" y="-50.3%" width="209.1%" height="200.7%" filterUnits="objectBoundingBox" id="filter-1">
            <feOffset dx="0" dy="2" in="SourceAlpha" result="shadowOffsetOuter1"></feOffset>
            <feGaussianBlur stdDeviation="2" in="shadowOffsetOuter1" result="shadowBlurOuter1"></feGaussianBlur>
            <feColorMatrix values="0 0 0 0 0   0 0 0 0 0   0 0 0 0 0  0 0 0 0.5 0" type="matrix" in="shadowBlurOuter1" result="shadowMatrixOuter1"></feColorMatrix>
            <feMerge>
                <feMergeNode in="shadowMatrixOuter1"></feMergeNode>
                <feMergeNode in="SourceGraphic"></feMergeNode>
            </feMerge>
        </filter>
        <polygon id="path-2" points="0.000112155235 0.000119891008 800.872047 0.000119891008 800.872047 880 0.000112155235 880"></polygon>
        <linearGradient x1="46.3823721%" y1="0%" x2="57.2131478%" y2="56.4075366%" id="linearGradient-4">
            <stop stop-color="#FFFFFF" stop-opacity="0.04" offset="0%"></stop>
            <stop stop-color="#FFFFFF" stop-opacity="0.22" offset="100%"></stop>
        </linearGradient>
    </defs>
    <g id="Store-Owner" stroke="none" stroke-width="1" fill="none" fill-rule="evenodd">
        <g id="O010---Login---03" transform="translate(-622.000000, -495.000000)"> 
            <g id="Group-3" transform="translate(150.000000, 120.000000)">
                <g id="Group-2" transform="translate(48.000000, 66.000000)">
                    <g id="Element-/-Form-Field-/-Stacked-Copy" transform="translate(2.000000, 269.000000)">
                        <g id="Icon24/Blank" transform="translate(422.000000, 48.750000)" filter="url(#filter-1)"></g>
                        <g id="Input/Box/Active" transform="translate(0.000000, 28.000000)"> 
                            <g id="Icon24/Blank" transform="translate(422.000000, 12.588235)" fill="#A0A4AC">
                                <path d="M12.0012,14.1445 C10.8612,14.1445 9.9352,13.2275 9.9352,12.1015 C9.9352,10.9745 10.8612,10.0585 12.0012,10.0585 C13.1412,10.0585 14.0672,10.9745 14.0672,12.1015 C14.0672,13.2275 13.1412,14.1445 12.0012,14.1445 M12.0012,8.6575 C10.0902,8.6575 8.5342,10.2025 8.5342,12.1015 C8.5342,13.9995 10.0902,15.5445 12.0012,15.5445 C13.9122,15.5445 15.4682,13.9995 15.4682,12.1015 C15.4682,10.2025 13.9122,8.6575 12.0012,8.6575 M19.5782,12.1945 C17.7772,15.4965 14.6622,17.8025 12.0012,17.8025 C9.3422,17.8025 6.2272,15.4965 4.4242,12.1935 C4.3942,12.1385 4.3942,12.0655 4.4242,12.0105 C6.2262,8.7075 9.3422,6.4005 12.0012,6.4005 C14.6622,6.4005 17.7782,8.7075 19.5792,12.0115 C19.6082,12.0665 19.6082,12.1375 19.5782,12.1945 M20.8072,11.3395 C19.0882,8.1845 15.6972,4.9995 12.0012,4.9995 C8.3072,4.9995 4.9162,8.1845 3.1952,11.3395 C2.9352,11.8165 2.9352,12.3875 3.1952,12.8645 L3.1952,12.8645 C4.9172,16.0195 8.3082,19.2035 12.0012,19.2035 C15.6972,19.2035 19.0872,16.0195 20.8062,12.8665 C21.0682,12.3875 21.0682,11.8165 20.8072,11.3395" id="Fill-1"></path>
                            </g>
                        </g>
                    </g>
                </g>
            </g>
            <g id="Header-01" transform="translate(639.000000, 0.000000)">
                <mask id="mask-3" fill="white">
                    <use xlink:href="#path-2"></use>
                </mask>
                <g id="Clip-2"></g>
                <path d="M639.87018,26.5655695 C642.335139,29.8835531 644.58849,33.4437166 646.629035,37.2406649 C645.113014,35.7492207 643.539444,34.3219183 641.908327,32.9563597 C641.132033,30.5567411 640.295193,28.2212643 639.396011,25.9535259 C639.551869,26.159139 639.71552,26.3575586 639.87018,26.5655695 M653.115139,52.1221362 C650.720916,50.2698202 648.208599,48.5475858 645.583586,46.9494387 C644.799499,43.1620817 643.885929,39.5066049 642.846474,35.9860054 C645.077046,37.9863869 647.187728,40.1156512 649.182714,42.3696022 C650.622605,45.4795749 651.934213,48.7304196 653.115139,52.1221362 M653.498191,47.678376 C655.964349,50.9963597 658.216501,54.5559237 660.257646,58.3528719 C658.741025,56.8620272 657.167455,55.4347248 655.536937,54.0691662 C654.760643,51.6695477 653.923804,49.3340708 653.024022,47.0663324 C653.18048,47.272545 653.344131,47.4703651 653.498191,47.678376 M666.74255,73.2349428 C664.348926,71.3826267 661.83721,69.6603924 659.212196,68.0622452 C658.42751,64.2742888 657.51454,60.6200109 656.474485,57.098812 C658.705057,59.098594 660.815738,61.2278583 662.811324,63.4818093 C664.250616,66.591782 665.561624,69.8426267 666.74255,73.2349428 M667.126801,68.7905831 C669.59236,72.1091662 671.845711,75.6693297 673.885657,79.4662779 C672.370234,77.9754332 670.796065,76.5481308 669.164948,75.1825722 C668.388654,72.7829537 667.552414,70.4468774 666.652632,68.179139 C666.80849,68.3853515 666.972142,68.5831717 667.126801,68.7905831 M680.371161,94.3465504 C677.976338,92.4948338 675.465221,90.7725995 672.840207,89.1744523 C672.05552,85.3870954 671.14255,81.7316185 670.103095,78.2110191 C672.333068,80.2108011 674.444349,82.3406649 676.439335,84.5946158 C677.878027,87.7039891 679.190234,90.9554332 680.371161,94.3465504 M680.754812,89.9033896 C683.219771,93.2213733 685.473123,96.7815368 687.513668,100.578485 C685.997646,99.0870409 684.424076,97.6603379 682.793559,96.2941798 C682.017264,93.8945613 681.180425,91.5596839 680.280643,89.2919455 C680.437101,89.4975586 680.600153,89.6959782 680.754812,89.9033896 M693.999172,115.459357 C691.604948,113.607041 689.092632,111.884807 686.468218,110.286659 C685.684131,106.499302 684.770561,102.844425 683.731106,99.3232262 C685.961678,101.323608 688.07236,103.452872 690.066747,105.706223 C691.506638,108.816196 692.818245,112.06764 693.999172,115.459357 M694.383422,111.015597 C696.848381,114.33358 699.101733,117.893744 701.141079,121.690093 C699.626256,120.198649 698.052087,118.771946 696.421569,117.406986 C695.645275,115.006768 694.807837,112.671292 693.908654,110.402954 C694.064512,110.609166 694.228763,110.807586 694.383422,111.015597 M707.627183,136.572163 C705.232959,134.720447 702.721243,132.998213 700.096828,131.400065 C699.312142,127.612109 698.399172,123.957232 697.359117,120.436632 C699.589689,122.436414 701.70097,124.565678 703.695956,126.819629 C705.134649,129.929602 706.446856,133.180447 707.627183,136.572163 M708.011433,132.129003 C710.476392,135.446387 712.729744,139.005951 714.76909,142.8023 C713.254267,141.312054 711.680698,139.884752 710.04958,138.519793 C709.273286,136.120174 708.437046,133.784698 707.537864,131.516959 C707.694322,131.723172 707.856774,131.920992 708.011433,132.129003 M729.187183,205.445351 C729.898136,230.882627 726.382932,260.758267 718.741079,294.242627 C705.250343,353.356087 683.051324,406.313144 675.756556,423.715924 L674.766256,426.083172 C660.767183,459.804916 642.164294,485.941755 617.894158,505.986932 C596.3983,523.740992 570.996392,536.208458 540.236556,544.102082 C483.232578,558.729984 417.82424,554.80715 354.570943,551.014398 C265.350452,545.663662 181.078463,540.610856 131.784676,588.382027 C96.4222234,613.76715 81.8932316,660.751837 81.7739401,706.571183 C80.6811335,706.358975 79.5859292,706.147967 78.5111063,705.917177 C75.7691989,705.330311 73.1321962,704.689493 70.5869101,704.001319 C69.6643488,692.68121 69.5978093,681.139902 70.4754114,669.763444 C73.9630409,624.545351 91.261515,588.617014 119.18533,568.596414 L119.281243,568.516687 C168.037918,521.21309 251.97661,526.247913 340.842223,531.577068 C404.225602,535.378812 469.767019,539.309439 527.025766,524.614997 C558.02958,516.658431 583.644294,504.083063 605.334975,486.168349 C629.481624,466.225678 648.777482,439.123117 662.687237,405.614779 L663.676937,403.251728 C670.985493,385.816578 693.226474,332.758812 706.748981,273.503281 C714.422605,239.881046 717.951597,209.863935 717.237046,184.285787 C716.79345,168.38764 714.698954,154.113417 710.987728,141.54824 C713.217101,143.547422 715.327782,145.676687 717.322768,147.930038 C724.573177,163.592599 728.556556,182.850692 729.187183,205.445351 M721.639444,153.240011 C734.828054,170.990474 741.952578,195.65685 742.815193,226.555161 C743.526147,251.991837 740.012142,281.866877 732.370888,315.350038 C718.880752,374.462899 696.681134,427.422354 689.386365,444.825134 L688.394267,447.195379 C674.395793,480.917123 655.792905,507.054561 631.522169,527.099139 C610.026311,544.853798 584.624403,557.320665 553.864567,565.214289 C496.861188,579.84279 431.45345,575.920556 368.199553,572.127204 C278.977864,566.776469 194.706474,561.723662 145.412687,609.494834 C114.889035,631.406114 99.8900708,669.412763 96.2783542,708.870093 C91.9023324,708.317395 87.6306158,707.672381 83.4871826,706.905079 C83.4949755,701.552545 83.6927956,696.195815 84.1034223,690.875651 C87.5910518,645.658158 104.890125,609.72982 132.81394,589.709221 L132.909253,589.629493 C181.66533,542.326496 265.602223,547.36012 354.470234,552.689875 C417.853613,556.491019 483.395629,560.420447 540.653777,545.727804 C571.657591,537.771237 597.272905,525.195869 618.962986,507.281155 C643.109635,487.337886 662.406093,460.235324 676.315847,426.727586 L677.304948,424.364534 C684.614104,406.929384 706.854485,353.871619 720.377591,294.616087 C728.051215,260.993853 731.579608,230.976741 730.865657,205.398594 C730.299172,185.102845 727.04533,167.450692 721.165275,152.627967 C721.321134,152.83418 721.484785,153.032599 721.639444,153.240011 M162.127292,714.121918 C190.397591,714.755542 219.630616,715.411946 247.332033,719.745406 C278.649962,724.643553 303.308545,733.668349 322.752469,747.358703 C355.217755,767.665243 380.460807,791.561918 398.009253,818.561373 C381.924076,799.514888 361.624131,782.281755 337.309035,767.07418 C317.687074,753.256741 292.7983,744.13903 261.219608,739.19952 C233.407891,734.849275 204.118518,734.191673 175.793068,733.556251 C147.298572,732.916632 120.281733,732.306986 97.1151935,728.017886 C97.1235858,722.665351 97.321406,717.308621 97.7314332,711.988458 C97.7638038,711.576033 97.8045668,711.169003 97.8387357,710.757777 C117.553014,713.117232 139.368981,713.611183 162.127292,714.121918 M406.872196,833.698812 C407.085003,834.105842 407.290016,834.515869 407.499226,834.922899 C392.116011,817.753907 373.214594,802.118921 350.937046,788.185787 C331.315084,774.369548 306.426311,765.251837 274.847619,760.311128 C247.036501,755.961482 217.746529,755.30448 189.421079,754.668458 C158.863858,753.983281 130.000098,753.33527 105.767728,748.14339 C103.025221,747.555924 100.388817,746.915706 97.8435313,746.226932 C97.3981362,740.7623 97.1535586,735.246714 97.1187902,729.722136 C120.348272,733.984861 147.317155,734.596305 175.755902,735.234125 C204.026202,735.868349 233.258627,736.524752 260.960044,740.857613 C292.277973,745.75636 316.936556,754.781155 336.381079,768.47151 C364.822223,786.260937 387.714213,806.807858 404.752523,829.780174 C405.474267,831.080392 406.184621,832.385406 406.872196,833.698812 M413.590888,848.032381 C399.699717,833.981155 383.330997,821.035324 364.565057,809.298594 C344.943695,795.481755 320.054921,786.364044 288.476229,781.423935 C260.665112,777.073689 231.375738,776.417286 203.050289,775.781264 C172.491869,775.095488 143.628708,774.448076 119.395738,769.254997 C112.25503,767.725787 105.796501,765.854289 99.9602071,763.620719 C99.1227684,758.496578 98.4699619,753.278322 97.9969918,748.009711 C100.38642,748.645134 102.857973,749.236196 105.415847,749.784098 C129.803477,755.010147 158.744567,755.659357 189.383913,756.346932 C217.654213,756.981155 246.887237,757.637559 274.588654,761.96982 C305.907183,766.869166 330.565166,775.893362 350.00909,789.583717 C374.213886,804.722954 394.400534,821.860174 410.380807,840.789166 C411.505984,843.186387 412.579008,845.600392 413.590888,848.032381 M418.380534,850.891183 C419.102278,852.192599 419.812632,853.497613 420.500807,854.811619 C420.713014,855.218649 420.918027,855.628076 421.127837,856.035706 C419.675956,854.415978 418.194703,852.808839 416.681079,851.216687 C415.967728,849.38715 415.222605,847.567204 414.448109,845.75745 C415.793286,847.454507 417.101297,849.16655 418.380534,850.891183 M427.219499,869.145188 C425.121406,867.022518 422.969362,864.924425 420.757973,862.853308 C419.970888,860.326005 419.120861,857.817886 418.22048,855.324752 C420.207673,857.492381 422.137319,859.684589 424.008817,861.901973 C425.133995,864.299193 426.207019,866.712599 427.219499,869.145188 M432.008545,872.003989 C432.730289,873.305406 433.441243,874.60982 434.128817,875.924425 C434.341624,876.330856 434.546038,876.740883 434.755847,877.148512 C433.303967,875.528785 431.823313,873.922245 430.30909,872.329493 C429.596338,870.499956 428.851215,868.680011 428.076719,866.869057 C429.421896,868.566114 430.729308,870.279357 432.008545,872.003989 M421.854975,872.989493 C412.647946,865.44655 402.632251,858.284861 391.821678,851.524207 C372.200316,837.706768 347.310943,828.589057 315.731651,823.649548 C287.920534,819.298703 258.630561,818.6417 230.305711,818.006278 C199.747891,817.320501 170.88473,816.67249 146.65176,811.48061 C130.462278,808.011564 117.748436,802.805896 107.956937,795.532109 C106.467891,791.267586 105.121515,786.847804 103.925003,782.300937 C112.014649,786.422191 121.53939,789.62388 132.671869,792.009112 C157.060098,797.234561 185.999989,797.883771 216.640534,798.571946 C244.910834,799.206169 274.143259,799.861973 301.844676,804.195433 C333.163204,809.09358 357.820589,818.118376 377.265711,831.80873 C392.981624,841.638594 407.002278,852.311292 419.280316,863.768076 C420.22146,866.817504 421.07988,869.892109 421.854975,872.989493 M109.938136,805.341591 C108.389144,803.36339 106.960643,801.28448 105.652033,799.099466 C104.495684,797.169221 103.385493,795.160447 102.31127,793.094125 C103.661243,794.305624 105.075956,795.467967 106.555411,796.583553 C107.616447,799.58982 108.743422,802.512763 109.938136,805.341591 M100.077101,788.582027 C98.3716512,784.954725 96.7890899,781.151782 95.3294169,777.20497 C97.4053297,778.634071 99.5987357,779.981046 101.919226,781.245297 C103.004839,785.502027 104.219935,789.644262 105.551924,793.654016 C103.602496,792.056469 101.778354,790.366605 100.077101,788.582027 M92.0240218,777.986659 C90.867673,776.056414 89.7574823,774.04824 88.6832589,771.981319 C90.0332316,773.192817 91.4479455,774.355161 92.9274005,775.471346 C93.9878365,778.476414 95.1154114,781.399956 96.3095259,784.228785 C94.7605341,782.250583 93.3320327,780.171673 92.0240218,777.986659 M86.4490899,767.46982 C84.7436403,763.842518 83.161079,760.038975 81.7008065,756.092163 C83.7773188,757.521264 85.9701253,758.86824 88.2906158,760.13249 C89.3768283,764.389221 90.5913243,768.531455 91.9239128,772.541809 C89.974485,770.944262 88.1509428,769.254398 86.4490899,767.46982 M78.3954114,756.873853 C77.2396621,754.943608 76.1282725,752.934834 75.0546485,750.868512 C76.4046213,752.080011 77.8199346,753.242354 79.2987902,754.35854 C80.3592262,757.363608 81.4874005,760.28715 82.681515,763.115978 C81.1325232,761.137777 79.7040218,759.059466 78.3954114,756.873853 M72.821079,746.356414 C71.11503,742.729711 69.5324687,738.926768 68.0727956,734.980556 C70.1493079,736.409057 72.3421144,737.756632 74.6626049,739.020283 C75.748218,743.277014 76.9633134,747.419847 78.2953025,751.428403 C76.3464741,749.831455 74.5229319,748.141591 72.821079,746.356414 M64.7674005,735.761046 C63.6110518,733.831401 62.500861,731.823226 61.4272371,729.756905 C62.7766104,730.967804 64.1919237,732.130147 65.6707793,733.246332 C66.7312153,736.252 67.8587902,739.174943 69.0529046,742.003172 C67.5045123,740.02497 66.0760109,737.946659 64.7674005,735.761046 M59.1924687,725.244207 C57.4876185,721.617504 55.9044578,717.813962 54.4441853,713.867749 C56.5206975,715.296251 58.7135041,716.643826 61.034594,717.907477 C62.1202071,722.164207 63.334703,726.307041 64.6672916,730.316196 C62.7178638,728.718649 60.8943215,727.029384 59.1924687,725.244207 M51.1393896,714.649439 C49.9830409,712.718594 48.8716512,710.709221 47.7974278,708.6423 C49.1474005,709.854997 50.5627139,711.016741 52.0427684,712.132926 C53.1032044,715.139193 54.2307793,718.062736 55.4248937,720.891564 C53.8759019,718.913362 52.448,716.834452 51.1393896,714.649439 M45.5638583,704.131401 C43.8584087,700.504098 42.2758474,696.700556 40.8155749,692.754343 C42.8926866,694.184044 45.0854932,695.531019 47.4059837,696.79467 C48.4921962,701.051401 49.7066921,705.194234 51.0392807,709.20339 C49.0892534,707.605842 47.2657112,705.915978 45.5638583,704.131401 M37.5113787,693.536632 C36.3556294,691.606387 35.2442398,689.597613 34.1700163,687.530692 C35.5199891,688.742191 36.934703,689.904534 38.414158,691.020719 C39.4739946,694.025787 40.6021689,696.948131 41.7962834,699.776959 C40.247891,697.799357 38.8199891,695.721046 37.5113787,693.536632 M31.9364469,683.019193 C19.3418965,656.233144 13.2862016,620.006278 15.9621689,585.313417 C19.4497984,540.095324 36.7488719,504.167586 64.6726866,484.146387 L64.768,484.066659 C113.524676,436.763662 197.461569,441.797286 286.32958,447.127041 C349.712959,450.928185 415.253777,454.858812 472.513123,440.16497 C503.516338,432.209003 529.131651,419.633035 550.822332,401.718322 C574.968981,381.775651 594.265439,354.67309 608.175193,321.164752 L609.164894,318.799302 C616.474049,301.363553 638.715629,248.30339 652.237537,189.049057 C657.984512,163.86715 661.405602,140.707804 662.461243,119.921101 C666.706583,120.60448 670.785875,121.474888 674.700916,122.529929 C675.232033,147.632109 671.718627,176.971237 664.229635,209.787804 C650.740098,268.901264 628.54048,321.86012 621.245711,339.263499 L620.253613,341.633144 C606.255139,375.354888 587.652251,401.491728 563.381515,421.536905 C541.885057,439.290965 516.48315,451.758431 485.724512,459.652054 C428.719335,474.279956 363.312196,470.357123 300.0583,466.564371 C210.83721,461.214234 126.564621,456.161428 77.2714332,503.932 C23.934921,542.220392 17.9895259,629.641319 37.4106703,688.090583 C35.4612425,686.493035 33.6377003,684.803771 31.9364469,683.019193 M23.8833678,672.423826 C7.54701907,645.146223 -0.709874659,603.678322 2.33475749,564.20061 C5.82178747,518.982518 23.1202616,483.05418 51.0446757,463.03358 L51.1399891,462.954452 C99.8966649,415.650856 183.832959,420.68448 272.70097,426.014834 C336.084948,429.815379 401.625766,433.745406 458.885112,419.052163 C489.888327,411.096796 515.503041,398.520229 537.194322,380.606114 C561.34097,360.662845 580.637428,333.560283 594.547183,300.052545 L595.536883,297.686496 C602.845439,280.250747 625.087619,227.191183 638.608926,167.936251 C642.619281,150.365624 645.485275,133.790093 647.2177,118.307368 C651.910834,118.568131 656.438518,119.016523 660.793559,119.660937 C659.753504,140.393689 656.342605,163.51527 650.601025,188.675597 C637.110888,247.788458 614.911869,300.747913 607.617101,318.150692 L606.625602,320.520338 C592.627128,354.242681 574.02364,380.378921 549.753504,400.424098 C528.257046,418.178158 502.855139,430.645624 472.095902,438.539248 C415.091324,453.16715 349.684185,449.244316 286.430289,445.451564 C197.210997,440.101428 112.937809,435.047422 63.6440218,482.818594 C6.61666485,523.755978 3.7626594,620.861101 28.1688719,678.665951 C26.6198801,676.687749 25.1919782,674.609439 23.8833678,672.423826 M614.577973,117.60121 C586.650561,119.050093 553.656556,125.14655 521.748763,131.042191 C484.56097,137.913744 446.110125,145.02388 416.553395,144.485569 C400.740371,144.200229 388.624785,141.821591 379.514267,137.211782 C369.938572,132.368185 363.881079,125.165134 361.028272,115.238158 C362.242169,116.02824 363.51721,116.770965 364.858191,117.459738 C374.176719,122.249384 386.530888,124.731128 402.625057,125.045842 C432.395793,125.644698 471.042659,118.487804 508.424076,111.580283 C540.278518,105.694834 573.218572,99.6085668 601.080044,98.1626812 C618.096774,96.3834986 633.466801,96.5201744 647.165548,98.5481308 C646.874213,104.356251 646.386256,110.361591 645.723858,116.537177 C636.029471,116.092381 625.645112,116.444861 614.577973,117.60121 M347.39127,94.1133624 C348.674104,94.9490027 350.021079,95.7348883 351.445384,96.4572316 C360.782496,101.195924 373.136065,103.642899 389.212251,103.937831 C418.932033,104.485134 457.504567,97.3582125 494.796665,90.4680763 C526.651706,84.5820272 559.590561,78.4963597 587.452033,77.0498747 C610.489689,74.6412643 630.513286,75.7436621 647.445493,80.3043161 C647.557591,85.6340708 647.487455,91.1544523 647.235084,96.8594659 C633.449417,94.838703 618.01285,94.7050245 600.949362,96.4896022 C573.021351,97.938485 540.026747,104.033744 508.118954,109.929984 C470.819063,116.821319 432.257319,123.951237 402.657428,123.367967 C386.825221,123.058049 374.712033,120.63685 365.625493,115.967095 C356.194866,111.120501 350.214104,103.957014 347.39127,94.1133624 M333.766256,72.9999564 C335.095248,73.8655695 336.490779,74.6784305 337.970834,75.4223542 C347.321134,80.125079 359.674104,82.5474768 375.737101,82.8274223 C405.443695,83.3531444 443.938899,76.2334169 481.168654,69.3552698 C513.023095,63.4698202 545.96255,57.3835531 573.823422,55.9370681 C602.86582,52.8996294 627.121569,55.4377221 646.422223,63.4668229 C646.928163,68.3164142 647.260262,73.3446431 647.411324,78.5533079 C630.386801,74.0478038 610.332033,72.9711826 587.321351,75.3767956 C559.39394,76.8256785 526.399935,82.9221362 494.491542,88.8177766 C457.28097,95.6917275 418.793559,102.813853 389.242823,102.259357 C373.426202,101.969221 361.311215,99.5821907 352.204894,94.9603924 C342.654975,90.1143978 336.61127,82.9161417 333.766256,72.9999564 M647.986202,62.2936894 C647.489253,57.7708011 646.837646,53.4037711 646.031978,49.1955967 C648.859608,50.9903651 651.543967,52.9421907 654.088654,55.045079 C655.295956,58.8306376 656.349798,62.7822452 657.248381,66.8963052 C654.299662,65.2082398 651.21127,63.6742343 647.986202,62.2936894 M659.842223,82.6637711 C656.411542,81.2754332 652.832796,80.052545 649.100589,79.0022997 C649.09879,78.9093842 649.09879,78.8140708 649.096392,78.7211553 C648.956719,73.7217003 648.652196,68.8846975 648.187619,64.2077493 C651.519989,65.6752153 654.691706,67.318921 657.716556,69.1244796 C658.59236,73.4633351 659.302714,77.9766322 659.842223,82.6637711 M661.073504,101.416523 C661.186202,106.746278 661.115466,112.267858 660.863695,117.972272 C656.539226,117.338649 652.050507,116.893253 647.401134,116.63249 C648.056338,110.51745 648.540098,104.566659 648.832632,98.8082943 C653.077973,99.491673 657.158463,100.362082 661.073504,101.416523 M649.13176,80.7676948 C652.934104,81.8569046 656.570398,83.1319455 660.050234,84.57903 C660.556774,89.4292207 660.888872,94.4568501 661.039335,99.6649155 C657.15127,98.6362507 653.108545,97.7814278 648.904567,97.1118365 C649.156937,91.4835531 649.231869,86.0345068 649.13176,80.7676948 M661.614213,83.4058965 C661.117264,78.8830082 660.465657,74.5159782 659.661188,70.3084033 C662.487619,72.1031717 665.171379,74.0543978 667.716065,76.1572861 C668.923967,79.9428447 669.977809,83.8944523 670.876392,88.0091117 C667.927673,86.3204469 664.838681,84.7870409 661.614213,83.4058965 M673.470234,103.775978 C670.038954,102.387041 666.460807,101.163553 662.729199,100.113907 C662.726801,100.021591 662.726801,99.9262779 662.724403,99.8339619 C662.58533,94.8345068 662.280807,89.9969046 661.815629,85.3211553 C665.147401,86.7880218 668.319117,88.432327 671.343967,90.2372861 C672.220371,94.5761417 672.930125,99.0882398 673.470234,103.775978 M662.759771,101.879902 C666.562114,102.969112 670.197809,104.244153 673.678245,105.691237 C674.184185,110.542027 674.516283,115.569657 674.666747,120.777722 C670.778681,119.749057 666.736556,118.894234 662.533177,118.224044 C662.785548,112.59636 662.86048,107.146714 662.759771,101.879902 M675.242823,104.518104 C674.745875,99.9952153 674.094267,95.6287847 673.289199,91.4206104 C676.116229,93.2153787 678.79939,95.1666049 681.344676,97.2694932 C682.551978,101.055651 683.60582,105.006659 684.504403,109.121319 C681.555684,107.432054 678.467292,105.899248 675.242823,104.518104 M687.098245,124.888785 C683.667564,123.500447 680.089417,122.276959 676.35721,121.227313 C676.354812,121.134398 676.354812,121.039084 676.352414,120.946169 C676.213341,115.946714 675.908817,111.109112 675.44424,106.432763 C678.775411,107.900828 681.947128,109.544534 684.971978,111.350093 C685.848381,115.688948 686.558736,120.201046 687.098245,124.888785 M688.870834,125.63151 C688.373886,121.108621 687.722278,116.741591 686.91661,112.533417 C689.74424,114.328185 692.428,116.279411 694.972687,118.382899 C696.180589,122.168458 697.233831,126.119466 698.132414,130.233526 C695.183695,128.54546 692.095902,127.012054 688.870834,125.63151 M676.388381,122.992109 C680.190725,124.081918 683.82582,125.356959 687.306856,126.804044 C687.81939,131.721973 688.155084,136.820338 688.30255,142.105733 C689.012905,167.541809 685.498899,197.41685 677.857646,230.90061 C664.368109,290.013471 642.16849,342.972926 634.873722,360.375706 L633.882223,362.745951 C619.88315,396.467095 601.280262,422.604534 577.010125,442.649711 C555.513068,460.403771 530.111161,472.871237 499.352523,480.764861 C442.347946,495.392763 376.940807,491.469929 313.686311,487.677177 C224.463422,482.326441 140.192632,477.273635 90.9000436,525.044807 C41.861624,560.247204 32.8823869,636.985243 46.8460926,694.55091 C44.3511608,693.125406 42.0096894,691.598594 39.8156839,689.969275 C31.1955204,665.283717 27.3620054,635.324752 29.5901798,606.425624 C33.0784087,561.208131 50.3768828,525.279193 78.3006975,505.259193 L78.3960109,505.179466 C127.153286,457.876469 211.092578,462.910692 299.957591,468.239847 C363.34097,472.040992 428.882387,475.971019 486.141134,461.277777 C517.144948,453.32121 542.759662,440.745842 564.450943,422.831128 C588.596992,402.887858 607.89345,375.785297 621.803204,342.277559 L622.793504,339.912109 C630.10206,322.47636 652.34424,269.416196 665.865548,210.161264 C673.335956,177.426823 676.865548,148.122463 676.388381,122.992109 M701.930561,163.219738 C702.641515,188.655815 699.12691,218.531455 691.485657,252.015815 C677.994921,311.128676 655.795902,364.087531 648.500534,381.489711 L647.509635,383.858158 C633.511161,417.579902 614.907673,443.716741 590.637537,463.761918 C569.141678,481.515978 543.739771,493.983444 512.980534,501.877068 C455.976556,516.505569 390.568817,512.583335 327.314921,508.789384 C238.096229,503.439847 153.822441,498.386441 104.528054,546.157014 C59.9381907,578.166114 48.4736131,644.514398 57.2568283,699.56655 C54.2871281,698.364044 51.4852752,697.061428 48.8470736,695.653907 C43.5317057,674.428403 41.4366104,650.644425 43.2187902,627.538431 C46.7064196,582.320937 64.0054932,546.392 91.9293079,526.372 L92.0246213,526.292272 C140.781896,478.989275 224.721188,484.023499 313.585602,489.352654 C376.96958,493.153798 442.510398,497.083226 499.769144,482.389984 C530.772959,474.434016 556.387673,461.858049 578.078954,443.943935 C602.225003,424.000665 621.52206,396.898104 635.431815,363.390365 L636.421515,361.024316 C643.730071,343.589166 665.972251,290.529003 679.494158,231.274071 C687.166583,197.652436 690.694975,167.636523 689.981025,142.058975 C689.841351,137.05952 689.537428,132.221918 689.072251,127.545569 C692.404022,129.012436 695.575738,130.657341 698.600589,132.4617 C700.505657,141.896523 701.622441,152.156196 701.930561,163.219738 M68.8365014,703.519357 C65.401624,702.540447 62.154376,701.460828 59.0755749,700.282899 C56.347455,683.59527 55.5142125,665.932327 56.8468011,648.651237 C60.33503,603.433144 77.6335041,567.504807 105.557319,547.484207 L105.652632,547.40448 C154.408708,500.101482 238.347401,505.135106 327.214213,510.464861 C390.596992,514.265406 456.138409,518.197232 513.397755,503.50279 C544.40097,495.546823 570.016283,482.970256 591.706365,465.056142 C615.853613,445.113471 635.149471,418.01091 649.059226,384.502572 L650.048327,382.138322 C657.357482,364.702572 679.599063,311.643608 693.121569,252.389275 C700.794594,218.767041 704.323586,188.750529 703.609035,163.172981 C703.314104,152.604589 702.288436,142.754343 700.545221,133.645624 C703.37285,135.440392 706.056011,137.391619 708.600098,139.494507 C712.75612,152.518267 715.089199,167.498649 715.559172,184.333144 C716.269526,209.76982 712.754921,239.64546 705.113068,273.12982 C691.622332,332.24388 669.423313,385.200937 662.128545,402.603117 L661.138245,404.970365 C647.139172,438.692109 628.536283,464.829548 604.266147,484.874125 C582.769689,502.628185 557.367782,515.095651 526.608545,522.989275 C469.605166,537.616578 404.196828,533.694943 340.942932,529.901591 C251.720643,524.550856 167.449253,519.498649 118.156665,567.269221 C78.1190627,596.010692 64.7829864,652.441591 68.8365014,703.519357 M60.4741035,715.663717 C57.9797711,714.237613 55.6382997,712.711401 53.4436948,711.081482 C51.9546485,706.817559 50.6088719,702.397177 49.4123597,697.850311 C51.9840218,699.161319 54.7031499,700.376414 57.5709428,701.503989 C58.3862016,706.326605 59.3567193,711.055706 60.4741035,715.663717 M70.8848392,720.679357 C67.915139,719.476251 65.1132861,718.174234 62.4756839,716.766714 C61.2887629,712.02982 60.2648937,707.165243 59.407673,702.208948 C62.4361199,703.335324 65.6318147,704.36339 68.9911608,705.303335 C69.4467466,710.50061 70.0803706,715.636741 70.8848392,720.679357 M72.7035858,721.395706 C71.8661471,716.271564 71.2133406,711.053308 70.7403706,705.784698 C73.1297984,706.41952 75.6013515,707.010583 78.1592262,707.559084 C79.3521417,707.814452 80.5654387,708.050638 81.7799346,708.284425 C81.808109,713.76764 82.0365014,719.229875 82.4651117,724.632163 C79.0296349,723.653253 75.7829864,722.573035 72.7035858,721.395706 M74.1021144,736.777123 C71.607782,735.351019 69.2663106,733.824807 67.0723052,732.194289 C65.5826594,727.930365 64.2368828,723.509984 63.0403706,718.963117 C65.6120327,720.272926 68.3311608,721.489221 71.1995531,722.616796 C72.0142125,727.439411 72.9847302,732.168512 74.1021144,736.777123 M84.5134496,741.792763 C81.5431499,740.589657 78.7418965,739.286441 76.1036948,737.88012 C74.9173733,733.142027 73.8935041,728.278049 73.0356839,723.321155 C76.0647302,724.447531 79.2604251,725.476196 82.6191717,726.416142 C83.0747575,731.613417 83.7089809,736.749548 84.5134496,741.792763 M95.4025504,727.684589 C94.3091444,727.471183 93.2139401,727.260774 92.1391172,727.029984 C89.3972098,726.442518 86.7608065,725.802899 84.214921,725.114125 C83.7695259,719.648894 83.5255477,714.133907 83.4901798,708.60933 C87.5916512,709.362245 91.8118147,710.000065 96.1338856,710.54497 C95.6591172,716.246986 95.4169373,721.97358 95.4025504,727.684589 M84.3683815,726.896905 C86.7584087,727.532327 89.2299619,728.12339 91.7872371,728.671292 C92.980752,728.927259 94.1934496,729.163444 95.4079455,729.397232 C95.4361199,734.880447 95.6645123,740.342681 96.0931226,745.745569 C92.6576458,744.766659 89.4109973,743.686441 86.3321962,742.507913 C85.494158,737.383771 84.8413515,732.166114 84.3683815,726.896905 M87.7307248,757.88873 C85.2363924,756.463826 82.8943215,754.937613 80.7003161,753.307095 C79.2112698,749.043172 77.8654932,744.62279 76.6689809,740.076523 C79.2406431,741.386332 81.9597711,742.602027 84.827564,743.729003 C85.6422234,748.551619 86.6127411,753.281319 87.7307248,757.88873 M89.7323052,758.991728 C88.5453842,754.254834 87.521515,749.390856 86.6636948,744.433962 C89.6927411,745.560338 92.888436,746.589003 96.247782,747.528349 C96.7027684,752.725624 97.3369918,757.862354 98.1414605,762.90497 C95.1717602,761.701864 92.3699074,760.399248 89.7323052,758.991728 M100.292305,765.546768 C105.961951,767.654452 112.198681,769.429439 119.043858,770.896905 C143.432687,776.121755 172.373177,776.771564 203.012523,777.459139 C231.282823,778.093962 260.515847,778.749766 288.216665,783.082627 C319.535193,787.981973 344.193177,797.005569 363.637101,810.695924 C383.607946,823.187368 400.838681,837.040774 415.234594,852.135052 C416.311215,854.915324 417.3183,857.715978 418.249853,860.539411 C406.428,849.772599 393.064349,839.712545 378.193668,830.411401 C358.571706,816.593962 333.682932,807.476251 302.10424,802.536741 C274.292523,798.186496 245.00315,797.528894 216.6777,796.893471 C186.11988,796.207695 157.25612,795.560283 133.02315,790.367804 C121.416501,787.881264 111.599226,784.499139 103.360316,780.104534 C102.173395,775.36764 101.149526,770.503063 100.292305,765.546768 M101.358736,779.002136 C98.8644033,777.576033 96.5229319,776.049221 94.3289264,774.419902 C92.8392807,770.155379 91.4935041,765.734997 90.2969918,761.188131 C92.868654,762.49854 95.587782,763.714234 98.4555749,764.841809 C99.2708338,769.664425 100.241351,774.394125 101.358736,779.002136 M320.146638,51.9009373 C321.275411,52.6358692 322.456338,53.3300381 323.695411,53.978049 C332.989362,58.8336349 345.343531,61.3609373 361.461678,61.7026267 C391.254594,62.3374496 430.041733,55.1709646 467.540643,48.2424632 C499.395084,42.3570136 532.33394,36.2707466 560.195411,34.8242616 C595.219771,31.1621907 623.290452,35.5999564 644.087946,48.0122725 C644.964349,52.3517275 645.674703,56.8638256 646.214213,61.5503651 C626.803858,53.6975041 602.56909,51.2451335 573.693341,54.2639891 C545.765929,55.7128719 512.771324,61.8093297 480.863531,67.70497 C443.714703,74.5675313 405.287237,81.6464959 375.766474,81.1501471 C359.961243,80.8737984 347.845057,78.5095477 338.724948,73.9231172 C329.094703,69.0795204 323.009035,61.8608828 320.146638,51.9009373 M306.515629,30.7809373 C307.799063,31.6177766 309.146638,32.4024632 310.571542,33.1248065 C319.909253,37.8617003 332.263422,40.3068774 348.337809,40.6006104 C378.061787,41.1365232 416.622932,34.0203924 453.911433,27.1296567 C485.766474,21.2442071 518.70533,15.1585395 546.567401,13.7120545 C587.557537,9.42714986 619.033722,16.2255695 640.460044,33.9328719 C641.667946,37.7184305 642.721787,41.6694387 643.620371,45.7840981 C622.658027,33.7794114 594.700643,29.5298747 560.06473,33.1511826 C532.137319,34.6000654 499.143313,40.6965232 467.23552,46.5921635 C429.819935,53.5056785 391.145493,60.6469864 361.497046,60.024752 C345.643858,59.6884578 333.533068,57.2240981 324.471706,52.4902016 C315.199935,47.6460054 309.310289,40.5232807 306.515629,30.7809373 M626.242169,5.45276294 C628.707728,8.77074659 630.96048,12.3309101 633.001025,16.1278583 C626.278736,9.5146703 618.42048,4.13875749 609.452632,0.000119891008 L605.224676,0.000119891008 C617.271324,4.96180926 627.402114,12.0461689 635.554703,21.2573951 C636.993995,24.3667684 638.306202,27.6176131 639.486529,31.0087302 C617.78146,14.2203924 586.59721,7.83919346 546.436719,12.0389755 C518.508708,13.4878583 485.514703,19.5843161 453.606311,25.4793569 C416.401733,32.3539074 377.930507,39.4616458 348.368981,38.9221362 C332.552959,38.6331989 320.437973,36.2467684 311.331052,31.6279673 C309.366038,30.631673 307.554485,29.5328719 305.883804,28.3351608 C305.877809,28.3075858 305.869417,28.2818093 305.863422,28.2548338 L305.796883,28.2704196 C299.386311,23.6450245 295.128381,17.5006104 292.878627,9.65074659 C303.120916,16.2603379 318.12048,19.5129809 338.256774,19.511782 C340.789471,19.511782 343.40909,19.4602289 346.105439,19.3583215 C373.797864,18.3020817 407.596937,12.0569591 440.284621,6.01744959 C451.385929,3.9667139 462.61612,1.89499728 473.719826,0.000119891008 L463.92533,0.000119891008 C455.93939,1.41843052 447.925875,2.89908447 439.979499,4.36714986 C407.351161,10.3952698 373.612632,16.6296022 346.041896,17.6804469 C315.386365,18.8505831 295.603749,13.3697657 285.566474,0.929275204 C285.321896,0.626550409 285.089907,0.312435967 284.85612,0.000119891008 L282.786202,0.000119891008 C283.256774,0.676904632 283.742332,1.34289918 284.259662,1.98371662 C286.146147,4.32159128 288.361134,6.41788556 290.901025,8.28279019 L290.784131,8.31096458 C292.908,17.0899837 297.481243,24.1149973 304.39236,29.2912916 C306.546202,38.2909101 311.236338,45.4657875 318.386638,50.6876403 L318.095302,50.7595749 C320.252741,59.4840436 324.848163,66.4640981 331.768872,71.6062234 L331.664567,71.6314005 C333.786038,80.4146158 338.358082,87.4438256 345.269199,92.6231172 C347.40146,101.554398 352.047237,108.684916 359.108817,113.900174 L358.941569,113.940937 C361.659499,125.099193 368.326038,133.432817 378.755956,138.709221 C388.097864,143.435924 400.452033,145.873907 416.522823,146.164044 C417.584458,146.183226 418.651488,146.192817 419.734703,146.192817 C448.989907,146.191619 486.114757,139.333253 522.053886,132.69249 C553.908327,126.807041 586.847183,120.720774 614.708054,119.274289 C625.669689,118.12873 635.949144,117.776251 645.539826,118.212054 C643.813995,133.604262 640.961188,150.086877 636.973014,167.56279 C623.482877,226.675651 601.283858,279.635106 593.98909,297.037886 L592.997591,299.407531 C578.998518,333.129875 560.395629,359.266114 536.125493,379.311292 C514.628436,397.065951 489.226529,409.532817 458.467891,417.426441 C401.463313,432.054943 336.055575,428.132109 272.801678,424.339357 C183.582387,418.988621 99.3091989,413.934616 50.0160109,461.706387 C-12.5814823,506.641537 -9.91091008,619.263553 22.4434768,673.286441 C24.7759564,677.1817 27.4705068,680.747858 30.5511063,684.005896 C32.2793351,687.663771 34.1196621,691.14061 36.0714877,694.398649 C38.4039673,698.293308 41.0985177,701.859466 44.1779183,705.117504 C45.9061471,708.775978 47.7470736,712.253417 49.6988992,715.512054 C52.0319782,719.407313 54.7271281,722.973471 57.8077275,726.232109 C59.5353569,729.888785 61.3756839,733.365624 63.3275095,736.624262 C65.6599891,740.51952 68.3545395,744.085079 71.4345395,747.343717 C73.1627684,751.000992 75.0036948,754.477831 76.9555204,757.737068 C79.2885995,761.632327 81.9831499,765.198485 85.0637493,768.456523 C86.7907793,772.114398 88.6323052,775.590638 90.5835313,778.849275 C92.9166104,782.744534 95.6111608,786.311292 98.6917602,789.56933 C100.41939,793.227204 102.260316,796.703444 104.212142,799.962082 C106.544621,803.857341 109.239771,807.423499 112.319771,810.682136 C114.047401,814.339411 115.888327,817.815651 117.840153,821.074888 C128.309035,838.554997 146.013341,849.445297 173.556501,855.346932 C197.94473,860.572381 226.884621,861.221591 257.524567,861.909766 C285.794866,862.54339 315.02849,863.199793 342.729308,867.533253 C360.544512,870.31952 376.202278,874.443771 389.973559,880.00012 L394.331597,880.00012 C379.560425,873.605134 362.56048,868.936578 342.988272,865.874561 C315.177155,861.523717 285.887183,860.867313 257.561733,860.231292 C227.004512,859.546114 198.140752,858.897504 173.907782,853.705624 C146.851978,847.907695 129.493559,837.265569 119.280643,820.211673 C118.124294,818.282027 117.013504,816.273253 115.939281,814.206932 C126.447128,823.639956 140.816665,830.139847 159.927891,834.234125 C184.316719,839.460174 213.25661,840.109384 243.895956,840.79636 C272.166856,841.431183 301.39988,842.086986 329.100698,846.420447 C360.419226,851.319193 385.07721,860.343989 404.521733,874.033744 C407.644894,875.987368 410.688327,877.979956 413.67661,880.00012 L416.651706,880.00012 C413.015411,877.497395 409.289798,875.037831 405.449689,872.636414 C385.828327,858.819575 360.938954,849.701864 329.360262,844.761755 C301.548545,840.412109 272.259172,839.754507 243.933722,839.118485 C213.375902,838.433308 184.512741,837.785297 160.279771,832.592817 C139.339008,828.105896 124.211161,820.712817 113.705711,809.694834 C111.999662,806.068131 110.417101,802.264589 108.957428,798.318376 C118.648218,804.987913 130.94364,809.83091 146.29988,813.121319 C170.688109,818.347368 199.628599,818.996578 230.267946,819.684153 C258.538245,820.318376 287.771869,820.974779 315.472687,825.30764 C346.791215,830.206387 371.449199,839.231183 390.893123,852.922136 C402.342114,860.083226 412.885929,867.693907 422.517973,875.726605 C422.848872,877.146114 423.157591,878.571019 423.453722,880.00012 L425.154376,880.00012 C424.984131,879.172272 424.824076,878.340828 424.642441,877.515379 C425.606965,878.337232 426.548708,879.169875 427.494649,880.00012 L430.025548,880.00012 C428.062332,878.247913 426.070943,876.508294 424.024403,874.794452 C423.332632,871.870311 422.567728,868.96655 421.729689,866.084371 C424.18206,868.438431 426.555302,870.829057 428.862605,873.247858 C429.728218,875.483226 430.536283,877.736578 431.308981,880.00012 L433.094158,880.00012 C432.690725,878.809003 432.275902,877.621482 431.84849,876.436959 C432.929907,877.617286 433.991542,878.805406 435.03879,880.00012 L439.643804,880.00012 C437.662005,876.990856 435.590888,874.018158 433.419063,871.086223 C429.393722,863.84121 424.848054,856.800011 419.789853,849.973417 C415.765112,842.728403 411.220044,835.688403 406.162441,828.862409 C388.473722,797.021755 360.739335,769.139302 323.680425,745.961373 C304.059063,732.143935 279.169689,723.026223 247.590997,718.086714 C219.77988,713.736469 190.490507,713.078866 162.165057,712.443444 C139.428926,711.933308 117.63454,711.440556 97.9850027,709.084698 C101.978572,665.23576 119.11939,630.411019 146.441951,610.822027 L146.537264,610.7423 C195.29454,563.438703 279.234431,568.472926 368.098845,573.802681 C431.482223,577.603826 497.02364,581.534452 554.282387,566.840011 C585.285602,558.884044 610.900916,546.308076 632.590997,528.393962 C656.738245,508.450692 676.034104,481.348131 689.943858,447.840392 L690.934158,445.474343 C698.243313,428.037995 720.484294,374.978431 734.006801,315.723499 C741.679226,282.101864 745.208218,252.085951 744.493068,226.508403 C743.620262,195.258812 736.384839,170.271128 722.98642,152.238921 C721.634049,150.418975 720.215738,148.670365 718.735684,146.988894 C716.047128,141.219738 712.923368,135.924752 709.359008,131.127313 C708.006638,129.307368 706.587728,127.558158 705.107074,125.875488 C702.419117,120.106932 699.295357,114.812545 695.730997,110.015106 C694.378627,108.195161 692.959717,106.445951 691.479063,104.763281 C688.789907,98.9941253 685.666147,93.6997384 682.101787,88.9022997 C680.749417,87.0823542 679.331106,85.3343433 677.851052,83.651673 C675.163095,77.8819183 672.038136,72.5869319 668.473777,67.7894932 C667.121406,65.9689482 665.703095,64.2203379 664.223041,62.5388665 C661.534485,56.7691117 658.410125,51.4747248 654.845166,46.6766866 C653.493395,44.8567411 652.074485,43.1081308 650.59503,41.4254605 C647.905275,35.6563052 644.781515,30.3613188 641.217155,25.5638801 C639.864185,23.7439346 638.445875,21.9947248 636.965221,20.3120545 C634.277264,14.5434986 631.153504,9.24911172 627.589144,4.45167302 C626.447183,2.91586921 625.25127,1.43821253 624.019989,0.000119891008 L621.794812,0.000119891008 C623.346202,1.7439346 624.83285,3.55668665 626.242169,5.45276294" id="Fill-1" fill="url(#linearGradient-4)" mask="url(#mask-3)"></path>
            </g>
        </g>
    </g>
</svg>