<svg width="13" height="14" viewBox="0 0 13 14" fill="none" xmlns="http://www.w3.org/2000/svg">
<path d="M12.21 4.61012L6.59 0.130117C6.37 -0.0498828 6.06 -0.0498828 5.84 0.130117L0.23 4.61012C0.08 4.73012 0 4.90012 0 5.08012V12.1201C0 13.1601 0.83 14.0001 1.85 14.0001H10.59C11.61 14.0001 12.44 13.1601 12.44 12.1201V5.08012C12.44 4.90012 12.36 4.73012 12.21 4.61012ZM7.06 12.8001H5.38V9.09012H7.06V12.8001ZM11.24 12.1201C11.24 12.5001 10.95 12.8001 10.59 12.8001H8.26V8.49012C8.26 8.16012 7.99 7.89012 7.66 7.89012H4.78C4.45 7.89012 4.18 8.16012 4.18 8.49012V12.8001H1.85C1.49 12.8001 1.2 12.4901 1.2 12.1201V5.37012L6.22 1.37012L11.24 5.37012V12.1201Z" fill="#7C858B"/>
</svg>
