<svg width="14" height="15" viewBox="0 0 14 15" fill="none" xmlns="http://www.w3.org/2000/svg">
<path d="M11.8398 14C11.7898 14 11.7398 14 11.6898 13.99C9.65982 13.77 7.68982 13.05 5.98982 11.92C4.39982 10.9 3.02982 9.5 2.02982 7.89C0.919819 6.15 0.229819 4.13 0.00981915 2.07C-0.0901809 1.02 0.669819 0.1 1.68982 0.01C1.73982 0 1.79982 0 1.85982 0H3.74982C3.75982 0 3.75982 0 3.76982 0C4.67982 0 5.46982 0.69 5.59982 1.62C5.66982 2.2 5.80982 2.76 6.00982 3.3C6.25982 3.98 6.09982 4.76 5.58982 5.28L5.10982 5.77C5.85982 6.98 6.85982 8.01 8.03982 8.77L8.50982 8.3C9.02982 7.78 9.79982 7.61 10.4798 7.87C10.9998 8.07 11.5598 8.21 12.1098 8.29C13.0498 8.43 13.7298 9.24 13.7098 10.2V12.12C13.7098 13.16 12.8798 14 11.8598 14.01C11.8598 14 11.8498 14 11.8398 14ZM3.75982 1.2C3.75982 1.2 3.74982 1.2 3.75982 1.2H1.85982C1.43982 1.24 1.16982 1.57 1.19982 1.95C1.39982 3.83 2.02982 5.66 3.03982 7.25C3.95982 8.72 5.19982 9.99 6.63982 10.92C8.18982 11.95 9.97982 12.6 11.8098 12.8C12.2198 12.8 12.5198 12.49 12.5198 12.12V10.19C12.5198 10.19 12.5198 10.18 12.5198 10.17C12.5298 9.82 12.2798 9.52 11.9498 9.48C11.3098 9.39 10.6598 9.23 10.0498 9C9.81982 8.9 9.54982 8.96 9.36982 9.14L8.56982 9.95C8.37982 10.15 8.07982 10.19 7.83982 10.05C6.16982 9.08 4.78982 7.67 3.83982 5.97C3.70982 5.74 3.74982 5.45 3.93982 5.26L4.73982 4.44C4.91982 4.25 4.97982 3.96 4.88982 3.71C4.64982 3.09 4.49982 2.44 4.40982 1.78C4.36982 1.45 4.07982 1.2 3.75982 1.2Z" fill="#7C818B"/>
</svg>
