<svg width="10" height="10" viewBox="0 0 10 10" fill="none" xmlns="http://www.w3.org/2000/svg">
<path d="M5.85006 4.99957L9.83006 1.01957C10.0601 0.78957 10.0601 0.40957 9.83006 0.16957C9.60006 -0.0604297 9.22006 -0.0604297 8.98006 0.16957L5.00006 4.14957L1.02006 0.17957C0.790059 -0.0504297 0.410059 -0.0504297 0.170059 0.17957C-0.0599414 0.40957 -0.0599414 0.78957 0.170059 1.02957L4.15006 4.99957L0.180059 8.97957C-0.0499414 9.20957 -0.0499414 9.58957 0.180059 9.82957C0.290059 9.93957 0.450059 9.99957 0.600059 9.99957C0.750059 9.99957 0.910059 9.93957 1.02006 9.81957L5.00006 5.84957L8.98006 9.82957C9.09006 9.93957 9.25006 9.99957 9.40006 9.99957C9.55006 9.99957 9.71006 9.93957 9.82006 9.81957C10.0501 9.58957 10.0501 9.20957 9.82006 8.96957L5.85006 4.99957Z" fill="#7C818B"/>
</svg>
