<svg width="14" height="12" viewBox="0 0 14 12" fill="none" xmlns="http://www.w3.org/2000/svg">
<path fill-rule="evenodd" clip-rule="evenodd" d="M14 11.2996C14 10.9131 13.6865 10.5996 13.3 10.5996H0.699975C0.313489 10.5996 0 10.9131 0 11.2996C0 11.6861 0.313489 11.9996 0.699975 11.9996H13.3C13.6865 11.9996 14 11.6861 14 11.2996ZM14 5.99979C14 5.6133 13.6865 5.29981 13.3 5.29981H0.699975C0.313489 5.29981 0 5.6133 0 5.99979C0 6.38677 0.313489 6.69976 0.699975 6.69976H13.3C13.6865 6.69976 14 6.38677 14 5.99979ZM13.3 1.39995H0.699975C0.313489 1.39995 0 1.08696 0 0.699975C0 0.313489 0.313489 0 0.699975 0H13.3C13.6865 0 14 0.313489 14 0.699975C14 1.08696 13.6865 1.39995 13.3 1.39995Z" fill="#A0A4AC"/>
</svg>
