<svg width="8" height="12" viewBox="0 0 8 12" fill="none" xmlns="http://www.w3.org/2000/svg">
<path d="M2.14 6C2.14 6.59 1.66 7.08 1.07 7.08C0.48 7.08 0 6.59 0 6C0 5.41 0.48 4.92 1.07 4.92C1.66 4.92 2.14 5.41 2.14 6ZM1.07 0C0.48 0 0 0.48 0 1.08C0 1.68 0.48 2.16 1.07 2.16C1.66 2.16 2.14 1.68 2.14 1.08C2.14 0.48 1.66 0 1.07 0ZM1.07 9.84C0.48 9.84 0 10.33 0 10.92C0 11.51 0.48 12 1.07 12C1.66 12 2.14 11.52 2.14 10.92C2.14 10.32 1.66 9.84 1.07 9.84ZM5.94 4.92C5.35 4.92 4.87 5.41 4.87 6C4.87 6.59 5.35 7.08 5.94 7.08C6.53 7.08 7.02 6.59 7.02 6C7.02 5.41 6.54 4.92 5.94 4.92ZM5.94 2.16C6.53 2.16 7.01 1.68 7.01 1.08C7.01 0.48 6.54 0 5.94 0C5.34 0 4.87 0.48 4.87 1.08C4.87 1.68 5.35 2.16 5.94 2.16ZM5.94 9.84C5.35 9.84 4.87 10.32 4.87 10.92C4.87 11.52 5.35 12 5.94 12C6.53 12 7.01 11.52 7.01 10.92C7.01 10.32 6.54 9.84 5.94 9.84Z" fill="#7C858B"/>
</svg>
