<svg width="18" height="18" viewBox="0 0 18 18" fill="none" xmlns="http://www.w3.org/2000/svg">
<path d="M9 11.89C7.41 11.89 6.11 10.59 6.11 9C6.11 7.41 7.41 6.11 9 6.11C10.59 6.11 11.89 7.41 11.89 9C11.89 10.59 10.59 11.89 9 11.89ZM9 7.31C8.07 7.31 7.31 8.07 7.31 9C7.31 9.93 8.07 10.69 9 10.69C9.93 10.69 10.69 9.93 10.69 9C10.69 8.07 9.93 7.31 9 7.31ZM9.06 18C7.89 18 6.93 17.05 6.93 15.87C6.92 15.54 6.75 15.31 6.5 15.21C6.22 15.09 5.93 15.14 5.74 15.33C4.88 16.19 3.54 16.2 2.71 15.39C2.7 15.38 2.69 15.38 2.69 15.37C1.86 14.54 1.86 13.19 2.69 12.36C2.92 12.12 2.97 11.84 2.86 11.59C2.75 11.34 2.52 11.18 2.25 11.18H2.13C0.95 11.19 0 10.23 0 9.06C0 7.89 0.95 6.93 2.13 6.93C2.45 6.93 2.69 6.76 2.79 6.5C2.91 6.22 2.86 5.93 2.67 5.74C2.22 5.3 2 4.76 2 4.19C2 3.62 2.22 3.09 2.62 2.69C3.02 2.29 3.56 2.07 4.12 2.07C4.69 2.07 5.22 2.29 5.62 2.69C5.86 2.92 6.14 2.97 6.39 2.86C6.44 2.84 6.49 2.82 6.54 2.82C6.74 2.7 6.86 2.49 6.86 2.26V2.13C6.87 0.95 7.83 0 9 0C10.17 0 11.13 0.95 11.13 2.13C11.13 2.46 11.29 2.7 11.53 2.8C11.78 2.91 12.07 2.86 12.26 2.67C13.13 1.8 14.48 1.8 15.31 2.63C15.71 3.03 15.93 3.57 15.93 4.14C15.93 4.7 15.72 5.22 15.33 5.62C15.32 5.63 15.32 5.64 15.31 5.64C15.08 5.87 15.03 6.16 15.14 6.41C15.16 6.46 15.18 6.51 15.18 6.56C15.3 6.76 15.51 6.88 15.74 6.88H15.87C17.04 6.87 18 7.83 18 9C18 10.17 17.05 11.13 15.87 11.13C15.54 11.13 15.3 11.29 15.2 11.53C15.2 11.53 15.2 11.53 15.2 11.54C15.09 11.79 15.14 12.07 15.33 12.27C15.77 12.7 16 13.24 16 13.81C16 14.38 15.78 14.91 15.38 15.31C14.55 16.14 13.2 16.14 12.37 15.31C12.13 15.08 11.85 15.03 11.6 15.14C11.35 15.25 11.19 15.48 11.19 15.75V15.88C11.19 17.05 10.23 18 9.06 18ZM6.21 13.94C6.46 13.94 6.71 13.99 6.95 14.1C7.64 14.35 8.11 15.02 8.13 15.79C8.13 16.39 8.55 16.8 9.06 16.8C9.57 16.8 9.99 16.38 9.99 15.87V15.74C9.99 15 10.44 14.33 11.12 14.03C11.81 13.72 12.62 13.87 13.17 14.41C13.4 14.64 13.63 14.73 13.88 14.73C14.13 14.73 14.36 14.63 14.54 14.46C14.71 14.28 14.81 14.05 14.81 13.8C14.81 13.55 14.71 13.32 14.54 13.14C13.96 12.54 13.81 11.74 14.12 11.04C14.41 10.36 15.08 9.92 15.82 9.92C16.4 9.92 16.82 9.5 16.82 8.99C16.82 8.48 16.4 8.06 15.89 8.06H15.76C15.02 8.06 14.35 7.61 14.05 6.93C14.01 6.89 14 6.83 13.99 6.77C13.75 6.1 13.91 5.35 14.41 4.84C14.42 4.82 14.44 4.8 14.46 4.79C14.63 4.61 14.73 4.38 14.73 4.13C14.73 3.88 14.63 3.65 14.46 3.47C14.1 3.11 13.51 3.11 13.15 3.47C12.55 4.05 11.74 4.2 11.05 3.89C10.37 3.6 9.93 2.93 9.93 2.19C9.93 1.61 9.51 1.19 9 1.19C8.49 1.19 8.07 1.62 8.07 2.13V2.26C8.07 3.01 7.62 3.67 6.94 3.97C6.89 3.99 6.83 4 6.77 4.01C6.1 4.25 5.35 4.09 4.84 3.59C4.61 3.36 4.38 3.26 4.13 3.26C3.88 3.26 3.65 3.36 3.47 3.53C3.3 3.71 3.2 3.95 3.2 4.19C3.2 4.43 3.3 4.67 3.47 4.85C4.06 5.45 4.2 6.25 3.89 6.95C3.65 7.64 2.98 8.12 2.21 8.13C1.62 8.13 1.2 8.55 1.2 9.06C1.2 9.57 1.62 9.99 2.13 9.99H2.26C3.01 9.99 3.67 10.44 3.97 11.12C4.28 11.81 4.13 12.62 3.59 13.16C3.18 13.57 3.18 14.15 3.52 14.51C3.53 14.51 3.53 14.52 3.54 14.53C3.72 14.7 3.95 14.8 4.2 14.8C4.45 14.8 4.68 14.7 4.85 14.53C5.24 14.14 5.72 13.94 6.21 13.94Z" fill="#7C818B"/>
</svg>
