<svg width="12" height="12" viewBox="0 0 12 12" fill="none" xmlns="http://www.w3.org/2000/svg">
<path d="M11.4001 5.39992H2.05012L6.42012 1.01992C6.65012 0.789922 6.65012 0.409922 6.42012 0.169922C6.19012 -0.0700777 5.81012 -0.0600777 5.57012 0.169922L0.170117 5.56992C0.110117 5.62992 0.0701172 5.68992 0.0401172 5.76992C-0.0198828 5.91992 -0.0198828 6.07992 0.0401172 6.22992C0.0701172 6.29992 0.110117 6.36992 0.170117 6.42992L5.57012 11.8299C5.69012 11.9399 5.84012 11.9999 6.00012 11.9999C6.16012 11.9999 6.31012 11.9399 6.42012 11.8199C6.65012 11.5899 6.65012 11.2099 6.42012 10.9699L2.05012 6.59992H11.4001C11.7301 6.59992 12.0001 6.32992 12.0001 5.99992C12.0001 5.66992 11.7301 5.39992 11.4001 5.39992Z" fill="#7C818B"/>
</svg>
