<svg width="14" height="14" viewBox="0 0 14 14" fill="none" xmlns="http://www.w3.org/2000/svg">
<path d="M13.82 12.98L11.13 10.29C12.03 9.2 12.57 7.81 12.57 6.29C12.58 2.82 9.76 0 6.29 0C2.82 0 0 2.82 0 6.29C0 9.76 2.82 12.58 6.29 12.58C7.81 12.58 9.2 12.04 10.29 11.14L12.98 13.83C13.09 13.94 13.25 14 13.4 14C13.55 14 13.71 13.94 13.82 13.83C14.06 13.59 14.06 13.21 13.82 12.98ZM1.2 6.29C1.2 3.48 3.48 1.2 6.29 1.2C9.1 1.2 11.38 3.48 11.38 6.29C11.38 7.69 10.81 8.95 9.9 9.87L9.89 9.88C9.89 9.88 9.88 9.89 9.88 9.9C8.96 10.81 7.69 11.38 6.3 11.38C3.48 11.38 1.2 9.09 1.2 6.29Z" fill="#7C818B"/>
</svg>
