<svg width="14" height="16" viewBox="0 0 14 16" fill="none" xmlns="http://www.w3.org/2000/svg">
<path d="M13.4163 2.96H10.4392V2.08C10.4295 0.93 9.5344 0 8.42529 0H5.5747C4.4656 0 3.56081 0.93 3.56081 2.08V2.96H0.583739C0.262682 2.96 0 3.23 0 3.56C0 3.89 0.262682 4.16 0.583739 4.16H1.43016V13.92C1.43016 15.07 2.33495 16 3.43433 16H10.5657C11.6748 16 12.5796 15.07 12.5796 13.92V4.16H13.4163C13.7373 4.16 14 3.89 14 3.56C14 3.23 13.7373 2.96 13.4163 2.96ZM4.72828 2.08C4.72828 1.59 5.10771 1.2 5.5747 1.2H8.42529C8.89229 1.2 9.26199 1.59 9.26199 2.08V2.96H4.72828V2.08ZM11.4024 13.92C11.4024 14.41 11.0229 14.8 10.5559 14.8H3.43433C2.96734 14.8 2.59764 14.4 2.59764 13.92V4.16H11.4121V13.92H11.4024Z" fill="#ffffff"/>
</svg>
