<svg width="88" height="88" viewBox="0 0 88 88" fill="none" xmlns="http://www.w3.org/2000/svg">
<path d="M54.676 52.9904L44.0103 42.3247L33.3446 52.9904" stroke="#7C818B" stroke-width="1.25" stroke-linecap="round" stroke-linejoin="round"/>
<path d="M44.0108 42.3247V66.3225" stroke="#7C818B" stroke-width="1.25" stroke-linecap="round" stroke-linejoin="round"/>
<path d="M66.3828 59.3631C68.9834 57.9453 71.0379 55.7018 72.2219 52.9867C73.4059 50.2716 73.652 47.2396 72.9214 44.369C72.1908 41.4985 70.525 38.9531 68.1871 37.1344C65.8491 35.3157 62.9721 34.3274 60.01 34.3255H56.6503C55.8432 31.2037 54.339 28.3056 52.2506 25.8489C50.1622 23.3922 47.5441 21.4409 44.593 20.1417C41.642 18.8425 38.4348 18.2292 35.2126 18.348C31.9904 18.4667 28.8371 19.3143 25.9896 20.8272C23.1422 22.34 20.6748 24.4786 18.7728 27.0824C16.8709 29.6861 15.584 32.687 15.0088 35.8597C14.4336 39.0324 14.5852 42.2941 15.452 45.3998C16.3189 48.5055 17.8786 51.3742 20.0137 53.7903" stroke="#7C818B" stroke-width="1.25" stroke-linecap="round" stroke-linejoin="round"/>
<path d="M54.676 52.9904L44.0103 42.3247L33.3446 52.9904" stroke="#7C818B" stroke-width="1.25" stroke-linecap="round" stroke-linejoin="round"/>
</svg>
