<svg width="14" height="12" viewBox="0 0 14 12" fill="none" xmlns="http://www.w3.org/2000/svg">
<path d="M13.99 1.76C13.92 0.78 13.11 0 12.12 0H1.88C0.89 0 0.08 0.78 0.01 1.76C0.01 1.8 0 1.84 0 1.89V9.6C0 10.64 0.84 11.49 1.88 11.49H12.12C13.16 11.49 14 10.64 14 9.6V1.89C14 1.84 13.99 1.8 13.99 1.76ZM1.88 1.2H12.12C12.4 1.2 12.64 1.37 12.74 1.61L7 5.65L1.26 1.61C1.36 1.37 1.6 1.2 1.88 1.2ZM12.12 10.29H1.88C1.5 10.29 1.2 9.98 1.2 9.6V3.04L6.66 6.88C6.76 6.95 6.88 6.99 7 6.99C7.12 6.99 7.24 6.95 7.34 6.88L12.8 3.04V9.6C12.8 9.98 12.49 10.29 12.12 10.29Z" fill="#7C818B"/>
</svg>
