<svg width="6" height="8" viewBox="0 0 6 8" fill="none" xmlns="http://www.w3.org/2000/svg">
<path d="M1.75967 4C1.75967 4.39333 1.43967 4.72 1.04634 4.72C0.653008 4.72 0.333008 4.39333 0.333008 4C0.333008 3.60667 0.653008 3.28 1.04634 3.28C1.43967 3.28 1.75967 3.60667 1.75967 4ZM1.04634 0C0.653008 0 0.333008 0.32 0.333008 0.72C0.333008 1.12 0.653008 1.44 1.04634 1.44C1.43967 1.44 1.75967 1.12 1.75967 0.72C1.75967 0.32 1.43967 0 1.04634 0ZM1.04634 6.56C0.653008 6.56 0.333008 6.88667 0.333008 7.28C0.333008 7.67333 0.653008 8 1.04634 8C1.43967 8 1.75967 7.68 1.75967 7.28C1.75967 6.88 1.43967 6.56 1.04634 6.56ZM4.29301 3.28C3.89967 3.28 3.57967 3.60667 3.57967 4C3.57967 4.39333 3.89967 4.72 4.29301 4.72C4.68634 4.72 5.01301 4.39333 5.01301 4C5.01301 3.60667 4.69301 3.28 4.29301 3.28ZM4.29301 1.44C4.68634 1.44 5.00634 1.12 5.00634 0.72C5.00634 0.32 4.69301 0 4.29301 0C3.89301 0 3.57967 0.32 3.57967 0.72C3.57967 1.12 3.89967 1.44 4.29301 1.44ZM4.29301 6.56C3.89967 6.56 3.57967 6.88 3.57967 7.28C3.57967 7.68 3.89967 8 4.29301 8C4.68634 8 5.00634 7.68 5.00634 7.28C5.00634 6.88 4.69301 6.56 4.29301 6.56Z" fill="#7C858B"/>
</svg>
