<svg width="10" height="10" viewBox="0 0 10 10" fill="none" xmlns="http://www.w3.org/2000/svg">
<path d="M5.85006 5L9.83006 1.02C10.0601 0.789998 10.0601 0.409998 9.83006 0.169998C9.60006 -0.0600024 9.22006 -0.0600024 8.98006 0.169998L5.00006 4.15L1.02006 0.179998C0.790059 -0.0500024 0.410059 -0.0500024 0.170059 0.179998C-0.0599414 0.409998 -0.0599414 0.789998 0.170059 1.03L4.15006 5L0.180059 8.98C-0.0499414 9.21 -0.0499414 9.59 0.180059 9.83C0.290059 9.94 0.450059 10 0.600059 10C0.750059 10 0.910059 9.94 1.02006 9.82L5.00006 5.85L8.98006 9.83C9.09006 9.94 9.25006 10 9.40006 10C9.55006 10 9.71006 9.94 9.82006 9.82C10.0501 9.59 10.0501 9.21 9.82006 8.97L5.85006 5Z" fill="#7C858B"/>
</svg>
