<svg width="14" height="14" viewBox="0 0 14 14" fill="none" xmlns="http://www.w3.org/2000/svg">
<path d="M7 3.28C5.74 3.28 4.71 4.305 4.71 5.57C4.71 6.83 5.735 7.86 7 7.86C8.26 7.86 9.29 6.835 9.29 5.57C9.29 4.305 8.26 3.28 7 3.28ZM7 6.655C6.4 6.655 5.91 6.165 5.91 5.565C5.91 4.965 6.4 4.475 7 4.475C7.6 4.475 8.09 4.965 8.09 5.565C8.09 6.17 7.6 6.655 7 6.655ZM7 0C3.14 0 0 3.14 0 7C0 10.86 3.14 14 7 14C10.86 14 14 10.86 14 7C14 3.14 10.86 0 7 0ZM4.325 12.14V11.015C4.325 10.445 4.79 9.975 5.365 9.975H8.64C9.21 9.975 9.68 10.44 9.68 11.015V12.14C8.88 12.56 7.97 12.8 7.005 12.8C6.035 12.8 5.125 12.56 4.325 12.14ZM10.875 11.305V11.02C10.875 9.785 9.87 8.78 8.635 8.78H5.36C4.125 8.78 3.12 9.785 3.12 11.02V11.305C1.945 10.24 1.2 8.71 1.2 7C1.2 3.8 3.8 1.2 7 1.2C10.2 1.2 12.8 3.8 12.8 7C12.8 8.71 12.055 10.24 10.875 11.305Z" fill="#7C818B"/>
</svg>
