<svg width="15" height="16" viewBox="0 0 15 16" fill="none" xmlns="http://www.w3.org/2000/svg">
<path d="M2.6 5.4C2.3 5.1 2.3 4.7 2.6 4.4L6.7 0.2C6.8 0.1 6.8 0.1 6.9 0C7 0 7.1 0 7.2 0C7.3 0 7.4 0 7.5 0.1C7.6 0.1 7.7 0.2 7.7 0.3L11.8 4.5C12.1 4.8 12.1 5.2 11.8 5.5C11.5 5.8 11.1 5.8 10.8 5.5L7.9 2.5V10.8C7.9 11.2 7.6 11.5 7.2 11.5C6.8 11.5 6.5 11.2 6.5 10.8V2.4L3.6 5.4C3.4 5.5 3.3 5.6 3.1 5.6C2.9 5.6 2.7 5.5 2.6 5.4ZM13.7 11.3C13.3 11.3 13 11.6 13 12V13.7C13 14.2 12.6 14.7 12.1 14.7H2.3C1.8 14.7 1.4 14.3 1.4 13.7V12C1.4 11.6 1.1 11.3 0.7 11.3C0.3 11.3 0 11.6 0 12V13.7C0 14.9 1 16 2.3 16H12C13.3 16 14.3 14.9 14.3 13.6V12C14.4 11.6 14 11.3 13.7 11.3Z" fill="#7C858B"/>
</svg>
