<?xml version="1.0" encoding="utf-8"?>
<!-- Generator: Adobe Illustrator 26.0.1, SVG Export Plug-In . SVG Version: 6.00 Build 0)  -->
<svg version="1.1" id="Layer_1" xmlns="http://www.w3.org/2000/svg" xmlns:xlink="http://www.w3.org/1999/xlink" x="0px" y="0px"
	 viewBox="0 0 33.5 10.5" style="enable-background:new 0 0 33.5 10.5;" xml:space="preserve">
<style type="text/css">
	.st0{fill-rule:evenodd;clip-rule:evenodd;fill:#26337A;}
	.st1{fill-rule:evenodd;clip-rule:evenodd;fill:#EC982D;}
</style>
<path class="st0" d="M11.9,10.3l1.7-10.2h2.7l-1.7,10.2H11.9"/>
<path class="st0" d="M24.1,0.4C23.6,0.2,22.8,0,21.8,0c-2.6,0-4.5,1.4-4.5,3.4c0,1.5,1.3,2.3,2.3,2.8c1,0.5,1.4,0.8,1.4,1.3
	c0,0.7-0.8,1-1.6,1c-1.1,0-1.6-0.2-2.5-0.5l-0.3-0.2L16.2,10c0.6,0.3,1.8,0.5,3,0.5c2.8,0,4.6-1.4,4.6-3.5c0-1.2-0.7-2-2.2-2.8
	C20.6,3.8,20,3.5,20,3c0-0.4,0.5-0.9,1.5-0.9c0.9,0,1.5,0.2,2,0.4l0.2,0.1L24.1,0.4"/>
<path class="st0" d="M27.7,6.7c0.2-0.6,1.1-2.8,1.1-2.8c0,0,0.2-0.6,0.4-1l0.2,0.9c0,0,0.5,2.4,0.6,2.9C29.5,6.7,28.2,6.7,27.7,6.7z
	 M31,0.2h-2.1c-0.6,0-1.1,0.2-1.4,0.8l-3.9,9.3h2.8c0,0,0.5-1.3,0.6-1.5c0.3,0,3,0,3.4,0c0.1,0.4,0.3,1.5,0.3,1.5h2.5L31,0.2z"/>
<path class="st0" d="M9.6,0.2L7,7.1L6.8,5.7c-0.5-1.6-2-3.4-3.7-4.3l2.4,8.9l2.8,0l4.2-10.2H9.6"/>
<path class="st1" d="M4.6,0.2H0.3l0,0.2c3.3,0.8,5.5,2.9,6.4,5.3L5.8,1C5.7,0.4,5.2,0.2,4.6,0.2"/>
</svg>
