<svg width="12" height="12" viewBox="0 0 12 12" fill="none" xmlns="http://www.w3.org/2000/svg">
<path d="M6.25844 5.39896L6.25844 1.15632C6.25844 0.802765 6.01095 0.555278 5.6574 0.555278C5.30384 0.555278 5.05636 0.802765 5.05636 1.15632V5.39896L0.813716 5.39896C0.460162 5.39896 0.212675 5.64645 0.212675 6C0.212675 6.35355 0.460162 6.60104 0.813716 6.60104L5.05636 6.60104V10.8437C5.05636 11.1972 5.30384 11.4447 5.6574 11.4447C5.83417 11.4094 5.9756 11.3387 6.08166 11.2326C6.18773 11.1265 6.25844 10.9851 6.22308 10.8083L6.22308 6.56569H10.4657C10.6071 6.56569 10.7839 6.53033 10.89 6.42426C10.9961 6.3182 11.0668 6.17678 11.0314 6C11.0314 5.64645 10.7839 5.39896 10.4304 5.39896L6.25844 5.39896Z" fill="#4463B0"/>
</svg>
