<svg width="16" height="17" viewBox="0 0 16 17" fill="none" xmlns="http://www.w3.org/2000/svg">
<path d="M0.599828 17.0001C0.439828 17.0001 0.289828 16.9401 0.179828 16.8201C0.0298281 16.6701 -0.0301719 16.4501 0.0298281 16.2401L1.14983 12.1401C1.17983 12.0401 1.22983 11.9501 1.30983 11.8701L11.3698 1.79012C12.4298 0.730117 14.1498 0.730117 15.1998 1.79012C15.7198 2.31012 15.9998 2.99012 15.9998 3.71012C15.9998 4.43012 15.7198 5.12012 15.2098 5.63012L5.12983 15.7001C5.05983 15.7701 4.95983 15.8301 4.85983 15.8601L0.749828 16.9801C0.709828 16.9901 0.649828 17.0001 0.599828 17.0001ZM2.25983 12.6101L1.45983 15.5501L4.39983 14.7501L14.3598 4.79012C14.6498 4.50012 14.7998 4.12012 14.7998 3.72012C14.7998 3.32012 14.6398 2.94012 14.3598 2.65012C13.7898 2.08012 12.7898 2.08012 12.2198 2.65012L2.25983 12.6101Z" fill="#7C858B"/>
</svg>
