<svg width="16" height="16" viewBox="0 0 16 16" fill="none" xmlns="http://www.w3.org/2000/svg">
<path d="M6.35 6.96H0.6C0.27 6.96 0 6.69 0 6.36V0.6C0 0.27 0.27 0 0.6 0H6.35C6.68 0 6.95 0.27 6.95 0.6V6.36C6.95 6.69 6.69 6.96 6.35 6.96ZM1.2 5.76H5.76V1.2H1.2V5.76ZM15.4 6.96H9.64C9.31 6.96 9.04 6.69 9.04 6.36V0.6C9.04 0.27 9.31 0 9.64 0H15.4C15.73 0 16 0.27 16 0.6V6.36C16 6.69 15.73 6.96 15.4 6.96ZM10.24 5.76H14.8V1.2H10.24V5.76ZM15.4 16H9.64C9.31 16 9.04 15.73 9.04 15.4V9.64C9.04 9.31 9.31 9.04 9.64 9.04H15.4C15.73 9.04 16 9.31 16 9.64V15.39C16 15.73 15.73 16 15.4 16ZM10.24 14.8H14.8V10.24H10.24V14.8ZM6.35 16H0.6C0.27 16 0 15.73 0 15.4V9.64C0 9.31 0.27 9.04 0.6 9.04H6.35C6.68 9.04 6.95 9.31 6.95 9.64V15.39C6.95 15.73 6.69 16 6.35 16ZM1.2 14.8H5.76V10.24H1.2V14.8Z" fill="#7C818B"/>
</svg>
