<svg width="18" height="15" viewBox="0 0 18 15" fill="none" xmlns="http://www.w3.org/2000/svg">
<path d="M7.5 8C7.5 8.4 7.2 8.8 6.7 8.8H4.4C4 8.8 3.7 8.4 3.7 8C3.7 7.6 4 7.3 4.4 7.3H6.8C7.2 7.3 7.5 7.6 7.5 8ZM18 3.8V10.5C18 12.6 16.3 14.3 14.2 14.3H3.8C1.7 14.3 0 12.6 0 10.5V3.8C0 1.7 1.7 0 3.8 0H14.3C16.3 0 18 1.7 18 3.8ZM1.5 3.6H16.5C16.4 2.4 15.5 1.5 14.3 1.5H3.8C2.6 1.5 1.6 2.4 1.5 3.6ZM16.5 10.5V5.1H1.5V10.4C1.5 11.6 2.5 12.6 3.7 12.6H14.2C15.5 12.7 16.5 11.7 16.5 10.5Z" fill="#7C858B"/>
</svg>
