<svg width="18" height="16" viewBox="0 0 18 16" fill="none" xmlns="http://www.w3.org/2000/svg">
<path d="M16.9003 14.4H16.2003V7.7C16.8003 7.5 17.3003 7.1 17.7003 6.6C18.1003 5.9 18.2003 5 17.8003 4.2L16.4003 1.5C15.9003 0.6 14.9003 0 13.9003 0H4.10026C3.10026 0 2.10026 0.5 1.70026 1.4L0.300263 4.2C-0.0997374 5 -0.0997374 5.8 0.400263 6.6C0.700263 7.2 1.30026 7.5 1.90026 7.7V14.4H1.10026C0.700263 14.4 0.300263 14.7 0.300263 15.2C0.300263 15.7 0.600263 16 1.10026 16H16.9003C17.3003 16 17.7003 15.7 17.7003 15.2C17.7003 14.7 17.3003 14.4 16.9003 14.4ZM1.60026 5.8C1.50026 5.6 1.40026 5.3 1.60026 4.9L3.00026 2.1C3.20026 1.7 3.60026 1.5 4.10026 1.5H13.9003C14.4003 1.5 14.8003 1.7 15.0003 2.1L16.4003 4.8C16.6003 5.2 16.5003 5.5 16.4003 5.7C16.2003 6 15.8003 6.2 15.4003 6.2C14.7003 6.2 14.0003 5.7 14.0003 5.2C14.0003 4.8 13.7003 4.4 13.2003 4.4C12.7003 4.4 12.4003 4.7 12.4003 5.2C12.4003 5.8 11.8003 6.2 11.0003 6.2C10.2003 6.2 9.60026 5.7 9.60026 5.2C9.60026 4.8 9.30026 4.4 8.80026 4.4C8.30026 4.4 8.20026 4.8 8.20026 5.3C8.20026 5.9 7.60026 6.3 6.80026 6.3C6.00026 6.3 5.40026 5.8 5.40026 5.3C5.40026 4.9 5.10026 4.5 4.60026 4.5C4.10026 4.5 4.00026 4.8 4.00026 5.3C4.00026 5.8 3.40026 6.3 2.60026 6.3C2.20026 6.3 1.80026 6.1 1.60026 5.8ZM3.30026 7.7C3.90026 7.6 4.40026 7.3 4.80026 7C5.30026 7.5 6.00026 7.8 6.90026 7.8C7.70026 7.8 8.50026 7.5 9.00026 7C9.50026 7.5 10.3003 7.8 11.1003 7.8C11.9003 7.8 12.7003 7.5 13.2003 7C13.6003 7.4 14.1003 7.6 14.6003 7.7V14.4H11.5003V11.5C11.6003 10.1 10.4003 9 9.00026 9C7.60026 9 6.40026 10.1 6.40026 11.6V14.5H3.30026V7.7ZM10.1003 14.4H7.90026V11.5C7.90026 10.9 8.40026 10.4 9.00026 10.4C9.60026 10.4 10.1003 10.9 10.1003 11.5V14.4Z" fill="#7C858B"/>
</svg>
