<svg width="18" height="18" viewBox="0 0 18 18" fill="none" xmlns="http://www.w3.org/2000/svg">
<path d="M15.2 18H2.8C1.2 18 0 16.8 0 15.2V2.8C0 1.2 1.2 0 2.8 0H15.3C16.8 0 18 1.2 18 2.8V15.3C18 16.8 16.8 18 15.2 18ZM2.8 1.5C2.1 1.5 1.6 2.1 1.6 2.7V15.2C1.6 15.9 2.2 16.4 2.8 16.4H15.3C16 16.4 16.5 15.8 16.5 15.2V2.8C16.5 2.1 15.9 1.6 15.3 1.6H2.8V1.5ZM9 11.1C6.8 11.1 5 9.3 5 7.1C5 4.9 6.8 3.1 9 3.1C11.2 3.1 13 4.9 13 7.1C13 9.3 11.2 11.1 9 11.1ZM9 4.6C7.6 4.6 6.5 5.7 6.5 7.1C6.5 8.5 7.6 9.6 9 9.6C10.4 9.6 11.5 8.5 11.5 7.1C11.5 5.7 10.4 4.6 9 4.6ZM14.2 15.2C14.6 15 14.8 14.6 14.6 14.2C14.4 13.7 14.1 13.2 13.7 12.9C13 12.3 12.1 11.9 11.2 11.9H6.8C5.9 11.9 5 12.3 4.3 12.9C3.9 13.3 3.6 13.7 3.4 14.2C3.2 14.6 3.4 15 3.8 15.2C4.2 15.4 4.6 15.2 4.8 14.8C4.9 14.5 5 14.2 5.3 14C5.7 13.6 6.2 13.4 6.8 13.4H11.2C11.8 13.4 12.3 13.6 12.7 14C12.9 14.2 13.1 14.5 13.2 14.8C13.3 15.1 13.6 15.3 13.9 15.3C14.1 15.3 14.1 15.3 14.2 15.2Z" fill="#7C858B"/>
</svg>
