<svg width="14" height="14" viewBox="0 0 14 14" fill="none" xmlns="http://www.w3.org/2000/svg">
<path d="M10.5999 14C10.3999 14 10.1999 14 9.99989 13.9C7.79989 13.5 5.49989 12.2 3.59989 10.3C1.69989 8.50002 0.499888 6.20002 0.0998875 4.00002C-0.100112 3.00002 0.199888 1.90002 0.899888 1.20002L1.39989 0.700024C2.29989 -0.199976 3.69989 -0.199976 4.59989 0.700024L5.49989 1.60002C5.79989 1.90002 5.99989 2.40002 5.99989 2.90002C5.99989 3.40002 5.79989 3.90002 5.39989 4.30002L4.89989 4.80002C5.29989 5.70002 5.89989 6.60002 6.69989 7.30002C7.39989 8.00002 8.29989 8.70003 9.19989 9.10003L9.79989 8.50002C10.0999 8.20002 10.5999 8.00002 11.0999 8.00002C11.5999 8.00002 12.0999 8.20003 12.3999 8.60003L13.2999 9.50002C13.6999 9.90002 13.9999 10.5 13.9999 11.1C13.9999 11.7 13.7999 12.3 13.2999 12.7L12.7999 13.2C12.2999 13.7 11.4999 14 10.5999 14ZM2.99989 1.50002C2.79989 1.50002 2.59989 1.60002 2.49989 1.70002L1.99989 2.20002C1.59989 2.60002 1.39989 3.20002 1.49989 3.70002C1.89989 5.60002 2.99989 7.60003 4.69989 9.30002C6.39989 11 8.39989 12.1 10.2999 12.5C10.8999 12.6 11.3999 12.4 11.7999 12.1L12.2999 11.6C12.3999 11.5 12.4999 11.3 12.4999 11.1C12.4999 10.9 12.3999 10.7 12.2999 10.6L11.3999 9.70002C11.0999 9.40002 10.9999 9.60002 10.8999 9.70002L10.1999 10.4C9.79989 10.8 9.19989 10.9 8.69989 10.7C7.59989 10 6.49989 9.30002 5.59989 8.40002C4.69989 7.50002 3.99989 6.40002 3.49989 5.30002C3.19989 4.80002 3.39989 4.20002 3.69989 3.80002L4.29989 3.20002C4.49989 3.10002 4.49989 3.00002 4.49989 2.90002C4.49989 2.80002 4.49989 2.70002 4.39989 2.60002L3.49989 1.70002C3.39989 1.60002 3.19989 1.50002 2.99989 1.50002Z" fill="#7C858B"/>
</svg>
