<svg width="14" height="12" viewBox="0 0 14 12" fill="none" xmlns="http://www.w3.org/2000/svg">
<path d="M5.6 5.1C5.6 4.7 5.9 4.3 6.4 4.3H7.7C8.1 4.3 8.5 4.6 8.5 5.1C8.5 5.6 8.1 5.9 7.7 5.9H6.3C5.9 5.9 5.6 5.5 5.6 5.1ZM6.3 8.6H7.6C8 8.6 8.4 8.3 8.4 7.8C8.4 7.3 8.1 7.1 7.7 7.1H6.3C5.9 7.1 5.5 7.4 5.5 7.9C5.5 8.4 5.9 8.6 6.3 8.6ZM14 11.2C14 11.6 13.7 12 13.2 12H0.8C0.3 12 0 11.7 0 11.2C0 10.9 0.2 10.6 0.6 10.5V4.8C0.6 4.1 1.2 3.5 1.9 3.5H3.4V1.3C3.4 0.6 4 0 4.7 0H9.2C9.9 0 10.5 0.6 10.5 1.3V3.5H12C12.7 3.5 13.3 4.1 13.3 4.8V10.5C13.8 10.6 14 10.9 14 11.2ZM10.6 5V10.5H11.9V5H10.6ZM4.9 10.5H9.1V1.5H4.9V10.5ZM2.1 5V10.5H3.4V5H2.1Z" fill="#7C858B"/>
</svg>
