<svg width="14" height="14" viewBox="0 0 14 14" fill="none" xmlns="http://www.w3.org/2000/svg">
<path d="M7 0C3.1 0 0 3.1 0 7C0 10.9 3.1 14 7 14C10.9 14 14 10.9 14 7C14 3.1 10.9 0 7 0ZM6.4 12.1C6 11.4 5.7 10.7 5.4 9.9C6.5 9.8 7.5 9.8 8.6 9.9C8.4 10.7 8.1 11.4 7.6 12.1C7.3 12.6 6.7 12.6 6.4 12.1ZM5.1 8.4C5 7.5 5 6.5 5.1 5.5C5.7 5.6 6.4 5.7 7 5.7C7.6 5.7 8.3 5.7 8.9 5.6C9 6.5 9 7.5 8.9 8.5C7.6 8.3 6.4 8.3 5.1 8.4ZM1.5 7C1.5 6.3 1.6 5.6 1.9 5C2.4 5.2 3 5.3 3.6 5.4C3.5 6.5 3.5 7.6 3.6 8.6C3 8.7 2.4 8.8 1.9 9C1.6 8.4 1.5 7.7 1.5 7ZM7 1.5C7.3 1.5 7.5 1.6 7.6 1.9C8 2.6 8.3 3.3 8.6 4.1C7.5 4.2 6.5 4.2 5.4 4.1C5.6 3.3 5.9 2.6 6.4 1.9C6.5 1.6 6.7 1.5 7 1.5ZM10.4 5.4C11 5.3 11.6 5.2 12.1 5C12.3 5.6 12.5 6.3 12.5 7C12.5 7.7 12.4 8.4 12.1 9C11.5 8.9 11 8.7 10.4 8.6C10.6 7.5 10.6 6.5 10.4 5.4ZM11.4 3.7C11 3.8 10.6 3.9 10.1 3.9C9.9 3.3 9.7 2.7 9.4 2.1C10.2 2.4 10.8 3 11.4 3.7ZM4.6 2.1C4.3 2.7 4.1 3.3 3.9 3.9C3.5 3.8 3 3.8 2.6 3.7C3.2 3 3.8 2.4 4.6 2.1ZM2.6 10.3C3 10.2 3.4 10.1 3.9 10.1C4.1 10.7 4.3 11.3 4.6 11.9C3.8 11.6 3.2 11 2.6 10.3ZM9.4 11.9C9.7 11.3 9.9 10.7 10.1 10.1C10.5 10.2 10.9 10.2 11.4 10.3C10.8 11 10.2 11.6 9.4 11.9Z" fill="#7C858B"/>
</svg>
