<svg width="32" height="32" viewBox="0 0 32 32" fill="none" xmlns="http://www.w3.org/2000/svg">
<path d="M0 4C0 1.79086 1.79086 0 4 0H28C30.2091 0 32 1.79086 32 4V28C32 30.2091 30.2091 32 28 32H4C1.79086 32 0 30.2091 0 28V4Z" fill="#F0DB4F"/>
<path d="M29.381 24.3679C29.1468 22.9079 28.1947 21.682 25.3749 20.5383C24.3954 20.0881 23.3034 19.7657 22.9779 19.0235C22.8624 18.5915 22.8471 18.3482 22.9201 18.0866C23.13 17.2379 24.143 16.9733 24.946 17.2166C25.4631 17.39 25.9528 17.7885 26.2479 18.4242C27.6289 17.53 27.6259 17.536 28.5901 16.9216C28.2373 16.3741 28.0487 16.1216 27.8175 15.8874C26.9871 14.9596 25.8555 14.482 24.0456 14.5185C23.7323 14.5581 23.416 14.6006 23.1027 14.6402C22.1993 14.8684 21.3384 15.3429 20.8335 15.9786C19.3186 17.6973 19.7506 20.7056 21.5939 21.9436C23.4099 23.3064 26.0776 23.6166 26.4182 24.8912C26.7498 26.4516 25.2715 26.9565 23.8023 26.7771C22.7194 26.552 22.1171 26.0014 21.4662 25.0007C20.2677 25.6942 20.2677 25.6942 19.0358 26.403C19.3278 27.0417 19.635 27.3307 20.1247 27.8843C22.4426 30.2357 28.2433 30.1201 29.2837 26.5611C29.3262 26.4394 29.6061 25.6242 29.381 24.3679ZM17.3962 14.7071H14.403C14.403 17.2927 14.3909 19.86 14.3909 22.4455C14.3909 24.0911 14.4761 25.5999 14.2084 26.0622C13.7704 26.9717 12.6358 26.8592 12.1187 26.6827C11.5924 26.4242 11.3247 26.0561 11.0145 25.536C10.9293 25.387 10.8654 25.2714 10.8441 25.2622C10.032 25.7581 9.22281 26.2569 8.41064 26.7527C8.81524 27.5832 9.4114 28.3041 10.1749 28.7725C11.3156 29.4569 12.8487 29.6668 14.4517 29.2987C15.4951 28.9945 16.3954 28.3649 16.8669 27.4067C17.5483 26.1505 17.4023 24.6295 17.3962 22.9474C17.4114 20.2037 17.3962 17.46 17.3962 14.7071Z" fill="#323330"/>
</svg>
