<svg width="18" height="18" viewBox="0 0 18 18" fill="none" xmlns="http://www.w3.org/2000/svg">
<path d="M8.5 18C7.3 18 6.2 17.6 5.3 16.7L1.3 12.7C0.5 11.9 0 10.7 0 9.50001C0 8.30001 0.5 7.20001 1.3 6.30001L6.3 1.30001C7.3 0.300009 8.6 -0.0999911 10 8.89413e-06L13.6 0.400009C15.7 0.600009 17.3 2.30001 17.6 4.40001L18 8.00001C18.2 9.40001 17.7 10.7 16.7 11.7L11.7 16.7C10.8 17.6 9.6 18 8.5 18ZM9.5 1.50001C8.7 1.50001 8 1.80001 7.4 2.40001L2.4 7.40001C1.8 8.00001 1.5 8.70001 1.5 9.50001C1.5 10.3 1.8 11.1 2.4 11.6L6.4 15.6C7.6 16.8 9.5 16.8 10.6 15.6L15.6 10.6C16.2 10 16.6 9.10001 16.5 8.20001L16.1 4.60001C15.9 3.20001 14.9 2.10001 13.5 2.00001L9.9 1.50001C9.7 1.50001 9.6 1.50001 9.5 1.50001ZM11.4 7.80001C11.1 7.80001 10.8 7.70001 10.5 7.40001C10.3 7.20001 10.1 6.90001 10.1 6.50001C10.1 6.20001 10.2 5.90001 10.5 5.60001C11 5.10001 11.7 5.10001 12.2 5.60001C12.7 6.10001 12.7 6.80001 12.2 7.30001C12.1 7.60001 11.8 7.80001 11.4 7.80001Z" fill="#7C858B"/>
</svg>
