<svg width="20" height="20" viewBox="0 0 20 20" fill="none" xmlns="http://www.w3.org/2000/svg">
<path d="M20 10C20 4.5 15.5 0 10 0C4.5 0 0 4.5 0 10C0 13.1 1.4 15.8 3.6 17.7C5.4 19.1 7.6 20 10 20C12.4 20 14.6 19.1 16.4 17.7C18.6 15.8 20 13.1 20 10ZM1.5 10C1.5 5.3 5.3 1.5 10 1.5C14.7 1.5 18.5 5.3 18.5 10C18.5 12.4 17.5 14.6 15.9 16.1C14.3 14.6 12.2 13.8 10 13.8C7.8 13.8 5.7 14.6 4.1 16.1C2.5 14.6 1.5 12.4 1.5 10ZM5.3 17.1C6.6 16 8.3 15.4 10 15.4C11.7 15.4 13.4 16 14.7 17.1C13.4 18 11.7 18.5 10 18.5C8.3 18.5 6.7 18 5.3 17.1ZM10 11.9C12 11.9 13.6 10.3 13.6 8.3C13.6 6.3 12 4.6 10 4.6C8 4.6 6.4 6.3 6.4 8.3C6.4 10.3 8 11.9 10 11.9ZM10 6.1C11.2 6.1 12.1 7.1 12.1 8.2C12.1 9.3 11.1 10.3 10 10.3C8.9 10.3 7.9 9.3 7.9 8.2C7.9 7.1 8.8 6.1 10 6.1Z" fill="#7C858B"/>
</svg>
