<svg width="18" height="18" viewBox="0 0 18 18" fill="none" xmlns="http://www.w3.org/2000/svg">
<path d="M14.5 0H3.5C1.6 0 0 1.6 0 3.5V14.5C0 16.4 1.6 18 3.5 18H14.5C16.4 18 18 16.4 18 14.5V3.5C18 1.6 16.4 0 14.5 0ZM3.5 1.5H14.5C15.6 1.5 16.5 2.4 16.5 3.5V11H13.2C12.6 11 12 11.4 11.7 11.9L11.3 12.7C11.3 12.8 11.2 12.8 11.2 12.8H6.8C6.7 12.8 6.7 12.8 6.7 12.7L6.3 11.9C6 11.4 5.4 11 4.8 11H1.5V3.5C1.5 2.4 2.4 1.5 3.5 1.5ZM14.5 16.5H3.5C2.4 16.5 1.5 15.6 1.5 14.5V12.5H4.8C4.9 12.5 4.9 12.5 4.9 12.6L5.3 13.4C5.6 14 6.2 14.3 6.8 14.3H11.2C11.8 14.3 12.4 13.9 12.7 13.4L13.1 12.6C13.1 12.5 13.2 12.5 13.2 12.5H16.5V14.5C16.5 15.6 15.6 16.5 14.5 16.5Z" fill="#7C858B"/>
</svg>
