<svg width="18" height="17" viewBox="0 0 18 17" fill="none" xmlns="http://www.w3.org/2000/svg">
<path d="M9 16.1C7.7 16.1 6.6 15 6.6 13.7V2.4C6.6 1.1 7.7 0 9 0C10.3 0 11.4 1.1 11.4 2.4V13.7C11.4 15 10.3 16.1 9 16.1ZM9 1.5C8.5 1.5 8.1 1.9 8.1 2.4V13.7C8.1 14.2 8.5 14.6 9 14.6C9.5 14.6 9.9 14.2 9.9 13.7V2.4C9.9 1.9 9.5 1.5 9 1.5ZM15.6 16.1C14.3 16.1 13.2 15 13.2 13.7V7C13.2 5.7 14.3 4.6 15.6 4.6C16.9 4.6 18 5.7 18 7V13.7C18 15 16.9 16.1 15.6 16.1ZM15.6 6.1C15.1 6.1 14.7 6.5 14.7 7V13.7C14.7 14.2 15.1 14.6 15.6 14.6C16.1 14.6 16.5 14.2 16.5 13.7V7C16.5 6.5 16.1 6.1 15.6 6.1ZM2.4 16.1C1.1 16.1 0 15 0 13.7V9.6C0 8.3 1.1 7.2 2.4 7.2C3.7 7.2 4.8 8.3 4.8 9.6V13.7C4.8 15 3.7 16.1 2.4 16.1ZM2.4 8.7C1.9 8.7 1.5 9.1 1.5 9.6V13.7C1.5 14.2 1.9 14.6 2.4 14.6C2.9 14.6 3.3 14.2 3.3 13.7V9.6C3.3 9.1 2.9 8.7 2.4 8.7Z" fill="#7C858B"/>
</svg>
